<svg width="456" height="300" viewBox="0 0 456 300" fill="none" xmlns="http://www.w3.org/2000/svg">
<rect width="456" height="300" rx="48" fill="white"/>
<path d="M325 212L325 224" stroke="#1F1F1F" stroke-linecap="round"/>
<path d="M326 126L326 136" stroke="#1F1F1F" stroke-linecap="round"/>
<circle cx="326.5" cy="173.5" r="38" fill="white" stroke="#1F1F1F"/>
<mask id="mask0_2015_1530" style="mask-type:alpha" maskUnits="userSpaceOnUse" x="288" y="135" width="77" height="77">
<circle cx="326.5" cy="173.5" r="38" fill="white" stroke="#1F1F1F"/>
</mask>
<g mask="url(#mask0_2015_1530)">
<path d="M328.605 150.696H333.012C338.978 150.696 343.814 145.86 343.814 139.895V133.632H293.581L291 153.868L320.163 184.201V189.714C320.163 193.126 322.93 195.89 326.342 195.886L328.605 195.884V212H357V195.943C357 191.256 353.2 187.456 348.513 187.456H344.721V180.603C344.721 175.916 340.921 172.117 336.234 172.117H316.326V162.913L319.265 162.938C324.41 162.983 328.605 158.825 328.605 153.68V150.696Z" fill="#E1E3E1"/>
</g>
<circle cx="326.5" cy="173.5" r="38" stroke="#1F1F1F"/>
<path d="M325 217C348.748 217 368 197.971 368 174.497C368 151.281 349.169 132.412 325.782 132" stroke="#1F1F1F"/>
<rect x="315" y="224" width="22" height="3" rx="1.5" fill="#1F1F1F"/>
<path d="M187.031 138.944C187.107 142.718 187.399 146.485 187.905 150.227C190.303 166.414 199.392 184.75 224.297 197.598C225.288 198.109 226.386 198.375 227.5 198.375C228.614 198.375 229.712 198.109 230.703 197.598C255.611 184.748 264.697 166.412 267.095 150.224C267.601 146.484 267.893 142.718 267.969 138.944V116.589C267.969 114.878 267.442 113.209 266.46 111.808C265.477 110.408 264.087 109.344 262.479 108.761L230.335 97.1224C228.503 96.4589 226.497 96.4589 224.665 97.1224L192.521 108.761C190.913 109.344 189.523 110.408 188.54 111.808C187.558 113.209 187.031 114.878 187.031 116.589V138.944Z" fill="#1967D2"/>
<mask id="mask1_2015_1530" style="mask-type:alpha" maskUnits="userSpaceOnUse" x="187" y="96" width="81" height="103">
<path d="M187.031 138.944C187.107 142.718 187.399 146.485 187.905 150.227C190.303 166.414 199.392 184.75 224.297 197.598C225.288 198.109 226.386 198.375 227.5 198.375C228.614 198.375 229.712 198.109 230.703 197.598C255.611 184.748 264.697 166.412 267.095 150.224C267.601 146.484 267.893 142.718 267.969 138.944V116.589C267.969 114.878 267.442 113.209 266.46 111.808C265.477 110.408 264.087 109.344 262.479 108.761L230.335 97.1224C228.503 96.4589 226.497 96.4589 224.665 97.1224L192.521 108.761C190.913 109.344 189.523 110.408 188.54 111.808C187.558 113.209 187.031 114.878 187.031 116.589V138.944Z" fill="#1967D2"/>
</mask>
<g mask="url(#mask1_2015_1530)">
<path d="M227.5 95.4688H176.625V199.531H227.5V95.4688Z" fill="#185ABC"/>
</g>
<path d="M227.5 146.986H240.818C239.865 152.543 235.062 156.616 228 156.616C220.238 156.616 213.947 150.056 213.947 142.297C213.947 134.538 220.238 127.977 228 127.977C231.485 127.977 234.622 129.179 237.093 131.531L243.855 124.766C239.749 120.943 234.392 118.594 228 118.594C221.713 118.594 215.684 121.091 211.239 125.536C206.794 129.981 204.296 136.01 204.296 142.297C204.296 148.583 206.794 154.612 211.239 159.058C215.684 163.503 221.713 166 228 166C241.689 166 250.703 156.377 250.703 142.836C250.706 141.165 250.558 139.498 250.262 137.854H227.5V146.986Z" fill="#E8F0FE"/>
<mask id="mask2_2015_1530" style="mask-type:alpha" maskUnits="userSpaceOnUse" x="204" y="118" width="47" height="48">
<path d="M227.5 146.986H240.818C239.865 152.543 235.062 156.616 228 156.616C220.238 156.616 213.947 150.056 213.947 142.297C213.947 134.538 220.238 127.977 228 127.977C231.485 127.977 234.622 129.179 237.093 131.531L243.855 124.766C239.749 120.943 234.392 118.594 228 118.594C221.713 118.594 215.684 121.091 211.239 125.536C206.794 129.981 204.296 136.01 204.296 142.297C204.296 148.583 206.794 154.612 211.239 159.058C215.684 163.503 221.713 166 228 166C241.689 166 250.703 156.377 250.703 142.836C250.706 141.165 250.558 139.498 250.262 137.854H227.5V146.986Z" fill="#E8F0FE"/>
</mask>
<g mask="url(#mask2_2015_1530)">
<path d="M227.5 117.36H203.797V167.236H227.5V117.36Z" fill="#D2E3FC"/>
</g>
<rect x="125.5" y="181.5" width="67" height="45" rx="5.5" stroke="#1F1F1F"/>
<path d="M167.342 197.853C169.553 198.988 169.553 202.012 167.342 203.147L156.649 208.636C154.548 209.715 152 208.264 152 205.989L152 195.011C152 192.736 154.548 191.285 156.649 192.364L167.342 197.853Z" fill="#44C265"/>
<path d="M130 217H186" stroke="#1F1F1F" stroke-linecap="round"/>
<g filter="url(#filter0_b_2015_1530)">
<circle cx="138" cy="217" r="4" fill="#E1E3E1"/>
<circle cx="138" cy="217" r="3.5" stroke="#1F1F1F"/>
</g>
<rect x="108.183" y="190.683" width="5" height="31" transform="rotate(30 108.183 190.683)" fill="#E1E3E1" stroke="#1F1F1F"/>
<circle cx="28.5" cy="28.5" r="28.5" transform="matrix(0.999998 0.00177669 0.00178037 0.999998 93 141)" fill="white" stroke="#1F1F1F"/>
<path d="M97.044 170C97.0194 156.193 108.192 145.02 121.999 145.044" stroke="#1F1F1F" stroke-linecap="round"/>
<rect x="106.865" y="193.5" width="5.00072" height="7" transform="rotate(30 106.865 193.5)" fill="#1F1F1F"/>
<mask id="path-25-inside-1_2015_1530" fill="white">
<path fill-rule="evenodd" clip-rule="evenodd" d="M147.68 181.04C143.727 190.077 135.208 196.65 125.03 197.852L125.011 187.172C125.004 183.763 127.763 181.005 131.172 181.011L147.68 181.04Z"/>
</mask>
<path fill-rule="evenodd" clip-rule="evenodd" d="M147.68 181.04C143.727 190.077 135.208 196.65 125.03 197.852L125.011 187.172C125.004 183.763 127.763 181.005 131.172 181.011L147.68 181.04Z" fill="#1F1F1F"/>
<path d="M147.68 181.04L148.597 181.444L149.209 180.043L147.678 180.04L147.68 181.04ZM125.03 197.852L124.03 197.851L124.032 198.978L125.15 198.846L125.03 197.852ZM131.172 181.011L131.174 182.011L131.172 181.011ZM146.764 180.637C142.948 189.358 134.727 195.699 124.909 196.859L125.15 198.846C135.689 197.6 144.505 190.796 148.597 181.444L146.764 180.637ZM126.03 197.854L126.01 187.174L124.011 187.17L124.03 197.851L126.03 197.854ZM126.01 187.174C126.005 184.317 128.317 182.006 131.174 182.011L131.17 180.011C127.209 180.004 124.003 183.209 124.011 187.17L126.01 187.174ZM131.174 182.011L147.682 182.04L147.678 180.04L131.17 180.011L131.174 182.011Z" fill="#1F1F1F" mask="url(#path-25-inside-1_2015_1530)"/>
<rect x="265.5" y="195.5" width="38" height="31" rx="5.67222" fill="white" stroke="#1F1F1F"/>
<rect x="273.5" y="204.5" width="22" height="14" rx="2.58611" fill="white" stroke="#1F1F1F"/>
<path d="M274 205L283.036 212.229C283.6 212.68 284.4 212.68 284.964 212.229L294 205" stroke="#1F1F1F"/>
<mask id="path-30-inside-2_2015_1530" fill="white">
<path fill-rule="evenodd" clip-rule="evenodd" d="M367 134.75C367 126.065 360.271 119 352 119C343.729 119 337 126.065 337 134.75C337 143.921 346.042 156.483 350.085 161.642C351.073 162.903 352.927 162.903 353.915 161.642C357.958 156.483 367 143.921 367 134.75ZM352 137C349.239 137 347 134.761 347 132C347 129.239 349.239 127 352 127C354.761 127 357 129.239 357 132C357 134.761 354.761 137 352 137Z"/>
</mask>
<path fill-rule="evenodd" clip-rule="evenodd" d="M367 134.75C367 126.065 360.271 119 352 119C343.729 119 337 126.065 337 134.75C337 143.921 346.042 156.483 350.085 161.642C351.073 162.903 352.927 162.903 353.915 161.642C357.958 156.483 367 143.921 367 134.75ZM352 137C349.239 137 347 134.761 347 132C347 129.239 349.239 127 352 127C354.761 127 357 129.239 357 132C357 134.761 354.761 137 352 137Z" fill="#F55E57"/>
<path d="M350.085 161.642L350.872 161.025L350.085 161.642ZM353.915 161.642L353.128 161.025L353.915 161.642ZM352 118C360.869 118 368 125.559 368 134.75L366 134.75C366 126.571 359.674 120 352 120L352 118ZM336 134.75C336 125.559 343.131 118 352 118L352 120C344.326 120 338 126.571 338 134.75L336 134.75ZM349.298 162.259C347.261 159.66 343.955 155.184 341.154 150.19C338.373 145.232 336 139.607 336 134.75L338 134.75C338 139.064 340.147 144.306 342.899 149.211C345.629 154.08 348.866 158.466 350.872 161.025L349.298 162.259ZM354.702 162.259C353.313 164.03 350.687 164.03 349.298 162.259L350.872 161.025C351.46 161.775 352.54 161.775 353.128 161.025L354.702 162.259ZM368 134.75C368 139.607 365.627 145.232 362.846 150.19C360.045 155.184 356.739 159.66 354.702 162.259L353.128 161.025C355.134 158.466 358.371 154.08 361.101 149.211C363.853 144.306 366 139.064 366 134.75L368 134.75ZM348 132C348 134.209 349.791 136 352 136L352 138C348.686 138 346 135.314 346 132L348 132ZM352 128C349.791 128 348 129.791 348 132L346 132C346 128.686 348.686 126 352 126L352 128ZM356 132C356 129.791 354.209 128 352 128L352 126C355.314 126 358 128.686 358 132L356 132ZM352 136C354.209 136 356 134.209 356 132L358 132C358 135.314 355.314 138 352 138L352 136Z" fill="#1F1F1F" mask="url(#path-30-inside-2_2015_1530)"/>
<path d="M372 133.161C372 122.579 363.941 114 354 114" stroke="#1F1F1F" stroke-linecap="round"/>
<path d="M160.749 118.986C155.536 119.185 144.703 117.283 143.078 108.093C141.047 96.6063 155.062 89.8724 160.749 96.8043C166.436 103.736 152.421 119.185 125 110.668" stroke="#1F1F1F" stroke-linecap="round"/>
<rect x="270.5" y="154.5" width="59" height="30" rx="15" fill="white" stroke="#1F1F1F"/>
<path d="M285.5 181C291.851 181 297 175.851 297 169.5C297 163.149 291.851 158 285.5 158C279.149 158 274 163.149 274 169.5C274 175.851 279.149 181 285.5 181Z" fill="#1F1F1F"/>
<rect x="208" y="226" width="40" height="1" rx="0.5" fill="#1F1F1F"/>
<rect x="260" y="226" width="88" height="1" rx="0.5" fill="#1F1F1F"/>
<path d="M110.657 99.3799C110.732 101.944 112.779 104.819 113.126 104.808C113.472 104.798 115.349 101.81 115.274 99.246C115.237 97.9641 114.173 96.959 112.899 97.0013C111.619 97.0384 110.615 98.1034 110.657 99.3799Z" fill="#1F1F1F"/>
<path d="M115.344 110.62C115.269 108.055 113.219 105.178 112.873 105.188C112.526 105.198 110.65 108.187 110.726 110.752C110.763 112.035 111.828 113.04 113.103 112.999C114.379 112.957 115.382 111.892 115.344 110.62Z" fill="#1F1F1F"/>
<path d="M107.377 107.343C109.937 107.269 112.807 105.219 112.797 104.872C112.787 104.526 109.803 102.646 107.242 102.72C105.962 102.757 104.959 103.822 105.001 105.098C105.033 106.375 106.097 107.38 107.377 107.343Z" fill="#1F1F1F"/>
<path d="M118.623 102.652C116.062 102.726 113.191 104.777 113.201 105.124C113.211 105.471 116.196 107.351 118.757 107.276C120.037 107.239 121.041 106.173 120.999 104.896C120.957 103.62 119.903 102.614 118.623 102.652Z" fill="#1F1F1F"/>
<defs>
<filter id="filter0_b_2015_1530" x="126.771" y="205.771" width="22.4584" height="22.4584" filterUnits="userSpaceOnUse" color-interpolation-filters="sRGB">
<feFlood flood-opacity="0" result="BackgroundImageFix"/>
<feGaussianBlur in="BackgroundImageFix" stdDeviation="3.61461"/>
<feComposite in2="SourceAlpha" operator="in" result="effect1_backgroundBlur_2015_1530"/>
<feBlend mode="normal" in="SourceGraphic" in2="effect1_backgroundBlur_2015_1530" result="shape"/>
</filter>
</defs>
</svg>
