<svg width="456" height="300" viewBox="0 0 456 300" fill="none" xmlns="http://www.w3.org/2000/svg">
<rect width="456" height="300" rx="48" fill="white"/>
<rect x="190.5" y="95.5" width="70" height="131" rx="12.5" fill="white" stroke="#1F1F1F"/>
<path d="M261 117C261.552 117 262 117.448 262 118V125C262 125.552 261.552 126 261 126V117Z" fill="#1F1F1F"/>
<path d="M261 131C261.552 131 262 131.448 262 132V137C262 137.552 261.552 138 261 138V131Z" fill="#1F1F1F"/>
<path d="M222 103H229" stroke="#1F1F1F" stroke-linecap="round"/>
<g filter="url(#filter0_b_2015_1708)">
<path d="M222.914 114.85C224.814 113.711 227.186 113.711 229.086 114.85L231.615 116.367C232.394 116.834 233.268 117.118 234.173 117.198L237.111 117.458C239.317 117.653 241.236 119.047 242.103 121.085L243.258 123.799C243.614 124.635 244.154 125.379 244.839 125.975L247.063 127.912C248.733 129.366 249.466 131.623 248.97 133.781L248.309 136.655C248.106 137.54 248.106 138.46 248.309 139.345L248.97 142.219C249.466 144.377 248.733 146.634 247.063 148.088L244.839 150.025C244.154 150.621 243.614 151.365 243.258 152.201L242.103 154.915C241.236 156.953 239.317 158.347 237.111 158.542L234.173 158.802C233.268 158.882 232.394 159.166 231.615 159.633L229.086 161.15C227.186 162.289 224.814 162.289 222.914 161.15L220.385 159.633C219.606 159.166 218.732 158.882 217.827 158.802L214.889 158.542C212.683 158.347 210.764 156.953 209.897 154.915L208.742 152.201C208.386 151.365 207.846 150.621 207.161 150.025L204.937 148.088C203.267 146.634 202.534 144.377 203.03 142.219L203.691 139.345C203.894 138.46 203.894 137.54 203.691 136.655L203.03 133.781C202.534 131.623 203.267 129.366 204.937 127.912L207.161 125.975C207.846 125.379 208.386 124.635 208.742 123.799L209.897 121.085C210.764 119.047 212.683 117.653 214.889 117.458L217.827 117.198C218.732 117.118 219.606 116.834 220.385 116.367L222.914 114.85Z" fill="#A8C7FA"/>
</g>
<path d="M217 144C217 139.029 221.029 135 226 135C230.971 135 235 139.029 235 144V150.692C235 151.415 234.415 152 233.692 152H218.308C217.585 152 217 151.415 217 150.692V144Z" fill="#1F1F1F"/>
<path d="M226 132C228.761 132 231 129.761 231 127C231 124.239 228.761 122 226 122C223.239 122 221 124.239 221 127C221 129.761 223.239 132 226 132Z" fill="#1F1F1F"/>
<path d="M326.901 80.1649C327.031 84.6517 330.614 89.6824 331.22 89.6649C331.826 89.6473 335.11 84.4173 334.98 79.9305C334.915 77.6871 333.053 75.9283 330.823 76.0022C328.582 76.0672 326.826 77.931 326.901 80.1649Z" fill="#1F1F1F"/>
<path d="M335.103 99.8352C334.97 95.3464 331.383 90.312 330.777 90.3293C330.171 90.3466 326.887 95.5773 327.02 100.066C327.086 102.31 328.949 104.071 331.181 103.998C333.413 103.925 335.169 102.061 335.103 99.8352Z" fill="#1F1F1F"/>
<path d="M321.16 94.1006C325.64 93.9706 330.663 90.3833 330.645 89.7765C330.628 89.1697 325.405 85.8797 320.924 86.0096C318.684 86.0746 316.928 87.9384 317.002 90.1723C317.058 92.4067 318.919 94.1655 321.16 94.1006Z" fill="#1F1F1F"/>
<path d="M340.84 85.8904C336.359 86.0214 331.334 89.6106 331.352 90.2176C331.369 90.8245 336.593 94.1141 341.074 93.9831C343.315 93.9176 345.071 92.0531 344.998 89.8186C344.924 87.5842 343.081 85.8249 340.84 85.8904Z" fill="#1F1F1F"/>
<path d="M289.803 133.243C294.669 130.681 303.535 123.191 300.076 113.728C295.753 101.898 279.339 102.977 277.875 112.467C276.411 121.957 297.512 129.04 317.963 106.612" stroke="#1F1F1F" stroke-linecap="round"/>
<circle cx="331" cy="199" r="27.5" fill="white" stroke="#1F1F1F"/>
<path d="M331 201.167L331 194.967L346.6 194.967C346.833 196.017 347.016 197 347.016 198.383C347.016 207.9 340.633 214.667 331.016 214.667C321.8 214.667 314.333 207.2 314.333 198C314.333 188.8 321.8 181.333 331 181.333C335.5 181.333 339.266 182.983 342.15 185.683L337.416 190.283C336.216 189.15 334.133 187.8 331 187.8C325.483 187.8 320.983 192.383 320.983 198C320.983 203.617 325.483 208.2 331 208.2C337.383 208.2 339.733 203.783 340.166 201.167L331 201.167Z" fill="#1F1F1F"/>
<path d="M219 227L208.888 185L195 227H219Z" fill="black"/>
<rect x="160.5" y="177.5" width="49" height="49" rx="11.5" fill="#80DA88" stroke="#1F1F1F"/>
<path d="M176.601 188.591C178.478 187.428 180.895 188.034 182 189.945L184.294 193.915L186.5 190.098C187.605 188.187 190.078 187.483 192.026 188.525C193.973 189.568 194.656 191.962 193.551 193.873L191.471 197.473H195C197.209 197.473 199 199.262 199 201.469C199 203.675 197.209 205.464 195 205.464H190.97L193.5 209.842C194.605 211.753 193.978 214.245 192.101 215.409C190.224 216.572 187.806 215.966 186.702 214.055L184.294 209.889L182.051 213.77C180.947 215.681 178.473 216.385 176.526 215.343C174.578 214.301 173.895 211.906 175 209.995L177.619 205.464H173C170.791 205.464 169 203.675 169 201.469C169 199.262 170.791 197.473 173 197.473H177.118L175.202 194.158C174.097 192.247 174.724 189.755 176.601 188.591Z" fill="#1F1F1F"/>
<path d="M118 116C118 100.536 130.536 88 146 88C161.464 88 174 100.536 174 116V136.001C174 140.419 170.418 144.001 166 144.001H146.001C130.536 144.001 118 131.465 118 116Z" fill="#F2B8B5"/>
<path d="M127.975 89C119 94.4267 113 104.279 113 115.533C113 121.166 114.503 126.448 117.131 131" stroke="#1F1F1F" stroke-linecap="round"/>
<rect x="128.5" y="99.5" width="50" height="31" rx="4.5" fill="white" stroke="#1F1F1F"/>
<path d="M176 100L131 100L153.099 118.37C153.537 118.734 154.173 118.729 154.605 118.358L176 100Z" fill="#1F1F1F"/>
<path d="M152.776 116.428L132 100L175 100L154.224 116.428C153.799 116.763 153.201 116.763 152.776 116.428Z" fill="white"/>
<rect x="245" y="173" width="44" height="38" rx="3.2" fill="#E1E3E1" stroke="#1F1F1F" stroke-width="0.8"/>
<path d="M242 180V175C242 172.239 244.239 170 247 170H252" stroke="#1F1F1F" stroke-linecap="round"/>
<path d="M283.201 206H250.642C249.893 206 249.41 205.207 249.754 204.541L258.065 188.458C258.409 187.792 259.335 187.727 259.769 188.338L267.79 199.628C268.198 200.201 269.053 200.186 269.44 199.599L274.54 191.866C274.942 191.257 275.839 191.269 276.224 191.888L284.05 204.472C284.464 205.138 283.985 206 283.201 206Z" fill="#1F1F1F"/>
<circle cx="279.5" cy="182.5" r="3.5" fill="#1F1F1F"/>
<rect x="128" y="226" width="200" height="1" rx="0.5" fill="#1F1F1F"/>
<defs>
<filter id="filter0_b_2015_1708" x="200.403" y="111.522" width="51.1934" height="52.9551" filterUnits="userSpaceOnUse" color-interpolation-filters="sRGB">
<feFlood flood-opacity="0" result="BackgroundImageFix"/>
<feGaussianBlur in="BackgroundImageFix" stdDeviation="1.23683"/>
<feComposite in2="SourceAlpha" operator="in" result="effect1_backgroundBlur_2015_1708"/>
<feBlend mode="normal" in="SourceGraphic" in2="effect1_backgroundBlur_2015_1708" result="shape"/>
</filter>
</defs>
</svg>
