<svg width="456" height="300" viewBox="0 0 456 300" fill="none" xmlns="http://www.w3.org/2000/svg">
<rect width="456" height="300" rx="48" fill="white"/>
<path d="M214.5 172C194.342 172 178 155.658 178 135.5C178 115.342 194.342 99 214.5 99L241.875 99C246.915 99 251 103.085 251 108.125L251 135.5C251 155.658 234.658 172 214.5 172Z" fill="#4C8DF6"/>
<path d="M206 84.5H168C161.096 84.5 155.5 90.0964 155.5 97V189C155.5 195.904 161.096 201.5 168 201.5H190H206C212.904 201.5 218.5 195.904 218.5 189V97C218.5 90.0964 212.904 84.5 206 84.5Z" fill="white" stroke="#1F1F1F"/>
<path d="M168 207H166C157.716 207 151 200.284 151 192V192" stroke="#1F1F1F" stroke-linecap="round"/>
<path d="M219 104C219.552 104 220 104.448 220 105V111C220 111.552 219.552 112 219 112V104Z" fill="white"/>
<path d="M219 117C219.552 117 220 117.448 220 118V122C220 122.552 219.552 123 219 123V117Z" fill="white"/>
<path d="M184 92H190" stroke="#1F1F1F" stroke-linecap="round"/>
<mask id="mask0_2015_1878" style="mask-type:alpha" maskUnits="userSpaceOnUse" x="156" y="84" width="62" height="116">
<rect x="156" y="84" width="62" height="116" rx="12" fill="#FFBB29"/>
</mask>
<g mask="url(#mask0_2015_1878)">
<path d="M214.5 172C194.342 172 178 155.658 178 135.5C178 115.342 194.342 99 214.5 99L241.875 99C246.915 99 251 103.085 251 108.125L251 135.5C251 155.658 234.658 172 214.5 172Z" fill="#FCBD00"/>
</g>
<rect x="280" y="174" width="36" height="36" rx="18" fill="#1AA64A"/>
<rect x="280" y="124" width="36" height="36" rx="18" fill="#1AA64A"/>
<path d="M297 124V124C287.611 124 280 131.611 280 141V141" stroke="#1F1F1F" stroke-linecap="round"/>
<mask id="mask1_2015_1878" style="mask-type:alpha" maskUnits="userSpaceOnUse" x="280" y="174" width="36" height="36">
<rect x="280" y="174" width="36" height="36" rx="18" fill="#E1E3E1"/>
</mask>
<g mask="url(#mask1_2015_1878)">
<circle cx="297" cy="170" r="33" fill="#1F1F1F"/>
</g>
<path d="M328 159C330.761 159 333 161.239 333 164V168C333 170.761 330.761 173 328 173V159Z" fill="#1F1F1F"/>
<circle cx="297" cy="166" r="32.5" fill="white" stroke="#1F1F1F"/>
<path d="M298.85 154C301.386 154.448 303.737 155.581 305.63 157.267C307.524 158.954 308.881 161.123 309.543 163.524C310.206 165.925 310.147 168.458 309.373 170.827C308.599 173.197 307.142 175.306 305.172 176.908C303.202 178.511 300.799 179.541 298.245 179.878C295.691 180.216 293.09 179.847 290.745 178.815C288.4 177.783 286.407 176.13 285 174.048" stroke="#1F1F1F" stroke-linecap="round"/>
<path d="M293.199 154.324C292.621 153.927 292.621 153.073 293.199 152.676L298.433 149.077C299.097 148.621 300 149.096 300 149.901L300 157.099C300 157.904 299.097 158.379 298.433 157.923L293.199 154.324Z" fill="#1F1F1F"/>
<path d="M265 129.5H203C196.096 129.5 190.5 135.096 190.5 142L190.5 204C190.5 210.904 196.097 216.5 203 216.5H265C271.904 216.5 277.5 210.904 277.5 204V142C277.5 135.096 271.904 129.5 265 129.5Z" fill="white" stroke="#1F1F1F"/>
<mask id="mask2_2015_1878" style="mask-type:alpha" maskUnits="userSpaceOnUse" x="191" y="130" width="86" height="86">
<path d="M265 130H203C196.373 130 191 135.373 191 142L191 204C191 210.627 196.373 216 203 216H265C271.627 216 277 210.627 277 204V142C277 135.373 271.627 130 265 130Z" fill="#6DD58C"/>
</mask>
<g mask="url(#mask2_2015_1878)">
<circle cx="297" cy="166" r="33" fill="#80DA88"/>
<path d="M214.5 172C194.342 172 178 155.658 178 135.5C178 115.342 194.342 99 214.5 99L241.875 99C246.915 99 251 103.085 251 108.125L251 135.5C251 155.658 234.658 172 214.5 172Z" fill="#E46962"/>
</g>
<circle cx="202" cy="141" r="3" fill="white"/>
<circle cx="211" cy="141" r="3" fill="white"/>
<circle cx="220" cy="141" r="3" fill="white"/>
<path d="M129.779 117.272C129.882 120.798 132.697 124.75 133.173 124.737C133.649 124.723 136.23 120.614 136.127 117.088C136.076 115.326 134.613 113.944 132.861 114.002C131.1 114.053 129.721 115.517 129.779 117.272Z" fill="#1F1F1F"/>
<path d="M136.224 132.728C136.119 129.201 133.301 125.245 132.825 125.259C132.349 125.272 129.769 129.382 129.873 132.909C129.925 134.672 131.389 136.056 133.142 135.998C134.896 135.941 136.275 134.477 136.224 132.728Z" fill="#1F1F1F"/>
<path d="M125.268 128.222C128.789 128.12 132.735 125.301 132.721 124.824C132.708 124.348 128.604 121.763 125.083 121.865C123.323 121.916 121.944 123.38 122.002 125.135C122.046 126.891 123.508 128.273 125.268 128.222Z" fill="#1F1F1F"/>
<path d="M140.732 121.771C137.211 121.874 133.263 124.694 133.276 125.171C133.29 125.648 137.394 128.233 140.915 128.13C142.676 128.078 144.056 126.613 143.998 124.858C143.94 123.102 142.492 121.72 140.732 121.771Z" fill="#1F1F1F"/>
<path d="M267 105L301 94" stroke="#1F1F1F" stroke-linecap="round"/>
<circle cx="4" cy="4" r="4" transform="matrix(-1 0 0 1 294 84)" fill="#1F1F1F"/>
</svg>
