<svg width="456" height="300" viewBox="0 0 456 300" fill="none" xmlns="http://www.w3.org/2000/svg">
<rect width="456" height="300" rx="48" fill="white"/>
<g filter="url(#filter0_b_2015_1985)">
<rect x="208" y="133" width="123" height="81" rx="12" fill="white" fill-opacity="0.01"/>
</g>
<g filter="url(#filter1_b_2015_1985)">
<path d="M277.5 133H220C213.373 133 208 138.373 208 145V202C208 208.627 213.373 214 220 214H319C325.627 214 331 208.627 331 202V183.5" stroke="#1F1F1F"/>
</g>
<path d="M220 200H319" stroke="#1F1F1F" stroke-linecap="round"/>
<path d="M220 200H250" stroke="#DC362E" stroke-linecap="round"/>
<g filter="url(#filter2_b_2015_1985)">
<circle cx="248" cy="200" r="6" fill="white"/>
<circle cx="248" cy="200" r="5.5" stroke="#1F1F1F"/>
</g>
<rect x="274" y="111" width="6" height="41" rx="3" transform="rotate(130 274 111)" fill="#80DA88"/>
<path d="M288.134 144.948C283.619 141.16 278.496 134.762 275.146 128.552C273.471 125.447 272.255 122.417 271.77 119.805C271.282 117.179 271.552 115.082 272.696 113.719C273.84 112.355 275.858 111.725 278.53 111.749C281.186 111.773 284.381 112.445 287.729 113.555C294.427 115.776 301.617 119.711 306.132 123.499C310.636 127.278 313.667 131.911 314.943 136.326C316.221 140.744 315.73 144.886 313.297 147.786C310.863 150.687 306.869 151.889 302.296 151.398C297.726 150.908 292.638 148.727 288.134 144.948Z" stroke="#1F1F1F"/>
<path d="M321.786 132.83C320.243 127.505 316.578 121.933 311.169 117.394C305.88 112.956 297.553 108.356 289.744 105.676" stroke="#1F1F1F" stroke-linecap="round"/>
<path d="M290.276 142.82C285.746 139.019 280.327 132.948 276.51 127.279C274.6 124.443 273.108 121.733 272.322 119.475C271.93 118.346 271.722 117.354 271.716 116.53C271.709 115.708 271.901 115.091 272.267 114.654C272.633 114.218 273.209 113.922 274.019 113.785C274.832 113.649 275.845 113.681 277.025 113.871C279.384 114.253 282.312 115.251 285.437 116.64C291.682 119.415 298.602 123.698 303.132 127.499C307.656 131.295 310.984 135.608 312.72 139.493C314.472 143.413 314.539 146.73 312.868 148.722C311.196 150.714 307.918 151.224 303.753 150.179C299.626 149.145 294.8 146.616 290.276 142.82Z" stroke="#1F1F1F"/>
<path d="M350.437 151.584C352.139 160.439 349.27 169.797 342.462 177.598C335.653 185.399 325.464 191.004 314.134 193.181C302.804 195.358 291.263 193.928 282.048 189.206C272.834 184.483 266.701 176.855 265 168L350.437 151.584Z" fill="#80DA88"/>
<path d="M363.779 109.272C363.882 112.798 366.697 116.75 367.173 116.737C367.649 116.723 370.23 112.614 370.127 109.088C370.076 107.326 368.613 105.944 366.861 106.002C365.1 106.053 363.721 107.517 363.779 109.272Z" fill="#1F1F1F"/>
<path d="M370.224 124.728C370.119 121.201 367.301 117.245 366.825 117.259C366.349 117.272 363.769 121.382 363.873 124.909C363.925 126.672 365.389 128.056 367.142 127.998C368.896 127.941 370.275 126.477 370.224 124.728Z" fill="#1F1F1F"/>
<path d="M359.268 120.222C362.789 120.12 366.735 117.301 366.721 116.824C366.708 116.348 362.604 113.763 359.083 113.865C357.323 113.916 355.944 115.38 356.002 117.135C356.046 118.891 357.508 120.273 359.268 120.222Z" fill="#1F1F1F"/>
<path d="M374.732 113.771C371.211 113.874 367.263 116.694 367.276 117.171C367.29 117.648 371.394 120.233 374.915 120.13C376.676 120.078 378.056 118.613 377.998 116.858C377.94 115.102 376.492 113.72 374.732 113.771Z" fill="#1F1F1F"/>
<path d="M314.34 193.587C325.645 191.415 335.806 185.789 342.589 177.947C346.485 173.441 349.083 168.416 350.264 163.264" stroke="#1F1F1F" stroke-linecap="round"/>
<path fill-rule="evenodd" clip-rule="evenodd" d="M158.94 103.468C163.993 103.468 168.09 107.564 168.09 112.618V115.469C173.075 115.549 177.09 119.615 177.09 124.618V143.317C177.09 148.371 172.993 152.468 167.94 152.468H126.241C121.187 152.468 117.09 148.371 117.09 143.317V124.618C117.09 119.615 121.106 115.549 126.09 115.469V112.618C126.09 107.564 130.187 103.468 135.241 103.468H158.94Z" fill="white"/>
<circle cx="9" cy="9" r="9" transform="matrix(-1 0 0 1 156.09 91.4675)" fill="#DC362E"/>
<mask id="path-17-inside-1_2015_1985" fill="white">
<path fill-rule="evenodd" clip-rule="evenodd" d="M158.94 103.468C163.993 103.468 168.09 107.564 168.09 112.618V115.469C173.075 115.549 177.09 119.615 177.09 124.618V143.317C177.09 148.371 172.993 152.468 167.94 152.468H126.241C121.187 152.468 117.09 148.371 117.09 143.317V124.618C117.09 119.615 121.106 115.549 126.09 115.469V112.618C126.09 107.564 130.187 103.468 135.241 103.468H158.94Z"/>
</mask>
<path fill-rule="evenodd" clip-rule="evenodd" d="M158.94 103.468C163.993 103.468 168.09 107.564 168.09 112.618V115.469C173.075 115.549 177.09 119.615 177.09 124.618V143.317C177.09 148.371 172.993 152.468 167.94 152.468H126.241C121.187 152.468 117.09 148.371 117.09 143.317V124.618C117.09 119.615 121.106 115.549 126.09 115.469V112.618C126.09 107.564 130.187 103.468 135.241 103.468H158.94Z" fill="white"/>
<path d="M168.09 115.469L168.074 116.469L167.09 116.453V115.469H168.09ZM126.09 115.469H127.09V116.453L126.106 116.469L126.09 115.469ZM167.09 112.618C167.09 108.117 163.441 104.468 158.94 104.468V102.468C164.546 102.468 169.09 107.012 169.09 112.618H167.09ZM167.09 115.469V112.618H169.09V115.469H167.09ZM176.09 124.618C176.09 120.162 172.513 116.54 168.074 116.469L168.106 114.469C173.636 114.558 178.09 119.068 178.09 124.618H176.09ZM176.09 143.317V124.618H178.09V143.317H176.09ZM167.94 151.468C172.441 151.468 176.09 147.818 176.09 143.317H178.09C178.09 148.923 173.546 153.468 167.94 153.468V151.468ZM126.241 151.468H167.94V153.468H126.241V151.468ZM118.09 143.317C118.09 147.818 121.739 151.468 126.241 151.468V153.468C120.635 153.468 116.09 148.923 116.09 143.317H118.09ZM118.09 124.618V143.317H116.09V124.618H118.09ZM126.106 116.469C121.667 116.54 118.09 120.162 118.09 124.618H116.09C116.09 119.068 120.545 114.558 126.074 114.469L126.106 116.469ZM127.09 112.618V115.469H125.09V112.618H127.09ZM135.241 104.468C130.739 104.468 127.09 108.117 127.09 112.618H125.09C125.09 107.012 129.635 102.468 135.241 102.468V104.468ZM158.94 104.468H135.241V102.468H158.94V104.468Z" fill="#1F1F1F" mask="url(#path-17-inside-1_2015_1985)"/>
<path d="M182.698 142.816C183.413 139.555 180.93 136.468 177.591 136.468H116.59C113.251 136.468 110.767 139.555 111.482 142.816L115.767 162.359C116.293 164.758 118.418 166.468 120.875 166.468H173.306C175.762 166.468 177.887 164.758 178.413 162.359L182.698 142.816Z" fill="#A8C7FA"/>
<path d="M68.4394 154.942L84.7936 138.474L88.5978 141.738L71.9231 158.414C70.9943 159.343 69.4885 159.343 68.5597 158.414L68.4451 158.299C67.5186 157.373 67.5161 155.871 68.4394 154.942Z" fill="#E1E3E1" stroke="#1F1F1F"/>
<g filter="url(#filter3_b_2015_1985)">
<circle cx="26.5" cy="26.5" r="26.5" transform="matrix(0.707093 0.70712 -0.707093 0.70712 105.09 83.4677)" fill="white" fill-opacity="0.01"/>
<circle cx="26.5" cy="26.5" r="26" transform="matrix(0.707093 0.70712 -0.707093 0.70712 105.09 83.4677)" stroke="#1F1F1F"/>
</g>
<rect width="5" height="7" transform="matrix(0.707093 0.70712 -0.707093 0.70712 85.0903 137.468)" fill="#1F1F1F"/>
<path d="M155.5 172.5C158.167 182.667 170.4 202 198 198" stroke="white" stroke-linecap="round" stroke-linejoin="round"/>
<path d="M201.5 200C184.5 216 161.822 212 157 198C152.178 184 179.901 176.12 180.237 186.883C180.574 197.647 149.363 197.5 149.363 173.193" stroke="#1F1F1F" stroke-linecap="round"/>
<defs>
<filter id="filter0_b_2015_1985" x="204" y="129" width="131" height="89" filterUnits="userSpaceOnUse" color-interpolation-filters="sRGB">
<feFlood flood-opacity="0" result="BackgroundImageFix"/>
<feGaussianBlur in="BackgroundImageFix" stdDeviation="2"/>
<feComposite in2="SourceAlpha" operator="in" result="effect1_backgroundBlur_2015_1985"/>
<feBlend mode="normal" in="SourceGraphic" in2="effect1_backgroundBlur_2015_1985" result="shape"/>
</filter>
<filter id="filter1_b_2015_1985" x="203.5" y="128.5" width="132" height="90" filterUnits="userSpaceOnUse" color-interpolation-filters="sRGB">
<feFlood flood-opacity="0" result="BackgroundImageFix"/>
<feGaussianBlur in="BackgroundImageFix" stdDeviation="2"/>
<feComposite in2="SourceAlpha" operator="in" result="effect1_backgroundBlur_2015_1985"/>
<feBlend mode="normal" in="SourceGraphic" in2="effect1_backgroundBlur_2015_1985" result="shape"/>
</filter>
<filter id="filter2_b_2015_1985" x="228.843" y="180.843" width="38.3137" height="38.3137" filterUnits="userSpaceOnUse" color-interpolation-filters="sRGB">
<feFlood flood-opacity="0" result="BackgroundImageFix"/>
<feGaussianBlur in="BackgroundImageFix" stdDeviation="6.57842"/>
<feComposite in2="SourceAlpha" operator="in" result="effect1_backgroundBlur_2015_1985"/>
<feBlend mode="normal" in="SourceGraphic" in2="effect1_backgroundBlur_2015_1985" result="shape"/>
</filter>
<filter id="filter3_b_2015_1985" x="75.7125" y="91.5663" width="58.7556" height="58.7576" filterUnits="userSpaceOnUse" color-interpolation-filters="sRGB">
<feFlood flood-opacity="0" result="BackgroundImageFix"/>
<feGaussianBlur in="BackgroundImageFix" stdDeviation="1.43915"/>
<feComposite in2="SourceAlpha" operator="in" result="effect1_backgroundBlur_2015_1985"/>
<feBlend mode="normal" in="SourceGraphic" in2="effect1_backgroundBlur_2015_1985" result="shape"/>
</filter>
</defs>
</svg>
