<svg width="456" height="300" viewBox="0 0 456 300" fill="none" xmlns="http://www.w3.org/2000/svg">
<rect width="456" height="300" rx="48" fill="white"/>
<path d="M169 226.5C169 226.224 169.224 226 169.5 226H285.5C285.776 226 286 226.224 286 226.5C286 226.776 285.776 227 285.5 227H169.5C169.224 227 169 226.776 169 226.5Z" fill="#1F1F1F"/>
<rect x="175.5" y="87.5" width="68" height="139" rx="12.5" fill="white" stroke="#1F1F1F"/>
<mask id="mask0_2015_2098" style="mask-type:alpha" maskUnits="userSpaceOnUse" x="176" y="88" width="67" height="138">
<rect x="176" y="88" width="67" height="138" rx="12" fill="#D9D9D9"/>
</mask>
<g mask="url(#mask0_2015_2098)">
<rect x="221.265" y="55.2498" width="62.6418" height="30.6584" rx="4" transform="rotate(42.7415 221.265 55.2498)" fill="#E1E3E1"/>
<rect x="174.031" y="71.0293" width="86.9546" height="107.016" rx="4" transform="rotate(42.7415 174.031 71.0293)" fill="#E1E3E1"/>
<rect x="199.829" y="186.875" width="65" height="46" rx="4" transform="rotate(42.7415 199.829 186.875)" fill="#80DA88"/>
<rect x="248.445" y="136.425" width="53" height="58" rx="4" transform="rotate(42.7415 248.445 136.425)" fill="#E1E3E1"/>
</g>
<path d="M244 119H244.043C244.571 119 245 119.429 245 119.957V124.043C245 124.571 244.571 125 244.043 125H244V119Z" fill="#1F1F1F"/>
<path d="M244 107H244.043C244.571 107 245 107.429 245 107.957V116.043C245 116.571 244.571 117 244.043 117H244V107Z" fill="#1F1F1F"/>
<circle cx="209.5" cy="93.5" r="1.5" fill="#1F1F1F"/>
<path d="M292 186H296.923C299.861 186 302.678 187.159 304.756 189.222C306.833 191.285 308 194.083 308 197C308 199.917 306.833 202.715 304.756 204.778C302.678 206.841 299.861 208 296.923 208H292" stroke="#1F1F1F" stroke-width="8" stroke-linecap="round"/>
<path d="M234.5 181.839C234.5 179.443 236.443 177.5 238.839 177.5H293.161C295.557 177.5 297.5 179.443 297.5 181.839V195C297.5 212.397 283.397 226.5 266 226.5C248.603 226.5 234.5 212.397 234.5 195V181.839Z" fill="white" stroke="#1F1F1F"/>
<path fill-rule="evenodd" clip-rule="evenodd" d="M282 135.899C282 127.132 275.047 120 266.5 120C257.953 120 251 127.132 251 135.899C251 145.157 260.343 157.838 264.522 163.046C265.542 164.318 267.458 164.318 268.478 163.046C272.657 157.838 282 145.157 282 135.899Z" fill="#DC362E"/>
<path d="M271.667 133.149C271.667 135.943 269.353 138.207 266.5 138.207C263.647 138.207 261.333 135.943 261.333 133.149C261.333 130.356 263.647 128.092 266.5 128.092C269.353 128.092 271.667 130.356 271.667 133.149Z" fill="white"/>
<path d="M194 155H176V165L194 155Z" fill="black"/>
<path d="M149.456 128C149.456 113.34 161.34 101.456 176 101.456C190.66 101.456 202.544 113.34 202.544 128V145.875C202.544 150.663 198.663 154.544 193.875 154.544H176C161.34 154.544 149.456 142.66 149.456 128Z" fill="white" stroke="#1F1F1F" stroke-width="0.9125"/>
<path d="M143 128C143 114.199 151.472 102.376 163.5 97.4497" stroke="#1F1F1F" stroke-linecap="round"/>
<path d="M175.103 111.817C175.47 111.074 176.53 111.074 176.897 111.817L181.057 120.247C181.203 120.543 181.485 120.747 181.81 120.794L191.114 122.146C191.934 122.266 192.262 123.273 191.668 123.852L184.936 130.414C184.7 130.644 184.593 130.975 184.648 131.299L186.238 140.565C186.378 141.382 185.52 142.005 184.787 141.619L176.465 137.245C176.174 137.091 175.826 137.091 175.535 137.245L167.213 141.619C166.48 142.005 165.622 141.382 165.762 140.565L167.352 131.299C167.407 130.975 167.3 130.644 167.064 130.414L160.332 123.852C159.738 123.273 160.066 122.266 160.886 122.146L170.19 120.794C170.515 120.747 170.797 120.543 170.943 120.247L175.103 111.817Z" fill="#FCBD00"/>
<path d="M275 169.5L287.5 157" stroke="#1F1F1F" stroke-linecap="round" stroke-linejoin="round"/>
</svg>
