<svg width="456" height="300" viewBox="0 0 456 300" fill="none" xmlns="http://www.w3.org/2000/svg">
<rect width="456" height="300" rx="48" fill="white"/>
<path d="M221.584 129.397C217.828 124.211 209.67 126.182 203.363 130.749C197.057 135.317 192.64 142.455 196.396 147.641C191.211 151.397 193.181 159.555 197.749 165.862C202.317 172.168 209.455 176.585 214.64 172.829C218.397 178.014 226.555 176.044 232.862 171.476C239.149 166.922 243.585 159.77 239.828 154.585C245.014 150.828 243.043 142.67 238.476 136.363C233.908 130.057 226.77 125.64 221.584 129.397Z" fill="#FCBD00"/>
<path d="M78.5 150.5C78.5 137.245 89.2452 126.5 102.5 126.5H213.5V174.5H102.5C89.2452 174.5 78.5 163.755 78.5 150.5Z" fill="white" stroke="#1F1F1F"/>
<path d="M79 150.5C79 137.521 89.5213 127 102.5 127H134V174H102.5C89.5213 174 79 163.479 79 150.5Z" fill="#E1E3E1"/>
<path d="M115.381 161L107.589 153.208C106.978 153.718 106.275 154.115 105.481 154.4C104.686 154.685 103.841 154.828 102.944 154.828C100.724 154.828 98.8398 154.064 97.2917 152.536C95.7639 150.988 95 149.114 95 146.914C95 144.714 95.7639 142.85 97.2917 141.322C98.8398 139.774 100.714 139 102.914 139C105.134 139 107.008 139.774 108.536 141.322C110.064 142.85 110.828 144.714 110.828 146.914C110.828 147.81 110.685 148.656 110.4 149.45C110.115 150.244 109.718 150.957 109.208 151.589L117 159.35L115.381 161ZM102.914 152.506C104.482 152.506 105.806 151.966 106.886 150.886C107.986 149.786 108.536 148.462 108.536 146.914C108.536 145.366 107.986 144.042 106.886 142.942C105.806 141.842 104.482 141.292 102.914 141.292C101.366 141.292 100.042 141.842 98.9417 142.942C97.8417 144.042 97.2917 145.366 97.2917 146.914C97.2917 148.462 97.8417 149.786 98.9417 150.886C100.042 151.966 101.366 152.506 102.914 152.506Z" fill="#1F1F1F"/>
<path d="M150.713 140.917C152.177 138.361 155.823 138.361 157.287 140.917L165.482 155.225C166.95 157.789 165.123 161 162.195 161H145.805C142.877 161 141.05 157.789 142.518 155.225L150.713 140.917Z" fill="#1F1F1F"/>
<ellipse cx="186.5" cy="151" rx="11.5" ry="12" fill="#1F1F1F"/>
<rect x="213" y="87" width="1" height="126" rx="0.5" fill="#1F1F1F"/>
<rect x="328" y="81" width="40" height="58" rx="10" transform="rotate(80 328 81)" fill="#DC362E"/>
<path d="M309.443 101.391C311.829 102.191 312.385 105.344 310.416 106.912L300.895 114.492C299.024 115.982 296.249 114.911 295.83 112.539L293.812 101.091C293.394 98.7192 295.636 96.7641 297.903 97.5239L309.443 101.391Z" fill="white"/>
<rect x="269" y="155" width="52" height="45" rx="4" transform="rotate(10 269 155)" fill="#1AA64A"/>
<path d="M307.593 202.807L268.614 195.934C267.878 195.804 267.539 194.943 267.989 194.347L281.548 176.364C282.002 175.762 282.934 175.86 283.253 176.543L290.567 192.205C290.867 192.847 291.72 192.982 292.204 192.464L300.225 183.879C300.727 183.342 301.617 183.511 301.886 184.194L308.697 201.455C308.984 202.182 308.363 202.943 307.593 202.807Z" fill="white"/>
<circle cx="307.245" cy="172.634" r="4" transform="rotate(10 307.245 172.634)" fill="white"/>
<path d="M351.192 128.127C353.405 126.309 356.595 126.309 358.808 128.127L360.365 129.406C361.533 130.365 363.019 130.848 364.528 130.758L366.539 130.639C369.398 130.47 371.978 132.344 372.701 135.115L373.209 137.065C373.59 138.528 374.509 139.792 375.782 140.606L377.479 141.692C379.891 143.236 380.877 146.269 379.832 148.935L379.097 150.811C378.546 152.218 378.546 153.782 379.097 155.189L379.832 157.065C380.877 159.731 379.891 162.764 377.479 164.308L375.782 165.394C374.509 166.208 373.59 167.472 373.209 168.935L372.701 170.885C371.978 173.656 369.398 175.53 366.539 175.361L364.528 175.242C363.019 175.152 361.533 175.635 360.365 176.594L358.808 177.873C356.595 179.691 353.405 179.691 351.192 177.873L349.635 176.594C348.467 175.635 346.981 175.152 345.472 175.242L343.461 175.361C340.602 175.53 338.022 173.656 337.299 170.885L336.791 168.935C336.41 167.472 335.491 166.208 334.218 165.394L332.521 164.308C330.109 162.764 329.123 159.731 330.168 157.065L330.903 155.189C331.454 153.782 331.454 152.218 330.903 150.811L330.168 148.935C329.123 146.269 330.109 143.236 332.521 141.692L334.218 140.606C335.491 139.792 336.41 138.528 336.791 137.065L337.299 135.115C338.022 132.344 340.602 130.47 343.461 130.639L345.472 130.758C346.981 130.848 348.467 130.365 349.635 129.406L351.192 128.127Z" fill="#1B6EF3"/>
<path d="M354.371 149.087C349.767 149.899 346.547 153.665 347.216 157.456L348.431 164.35L365.173 161.398L363.957 154.504C363.289 150.713 358.975 148.275 354.371 149.087Z" fill="white"/>
<path d="M353.994 146.645C356.442 146.213 358.076 143.879 357.645 141.432C357.213 138.984 354.879 137.35 352.432 137.781C349.984 138.213 348.35 140.547 348.781 142.994C349.213 145.442 351.547 147.076 353.994 146.645Z" fill="white"/>
<path d="M234.826 118.424L250.114 100.113" stroke="#1F1F1F" stroke-linecap="round" stroke-linejoin="round"/>
<path d="M229.294 181.751L246.233 198.547" stroke="#1F1F1F" stroke-linecap="round" stroke-linejoin="round"/>
<path d="M248.826 144.825L261.531 143.218" stroke="#1F1F1F" stroke-linecap="round" stroke-linejoin="round"/>
<path d="M338.597 196.934C338.657 199.017 340.321 201.353 340.602 201.344C340.883 201.336 342.408 198.908 342.348 196.825C342.318 195.783 341.453 194.967 340.418 195.001C339.378 195.031 338.562 195.897 338.597 196.934Z" fill="#1F1F1F"/>
<path d="M342.405 206.066C342.343 203.982 340.678 201.645 340.397 201.653C340.115 201.661 338.59 204.089 338.652 206.174C338.683 207.216 339.548 208.033 340.584 207.999C341.62 207.965 342.435 207.1 342.405 206.066Z" fill="#1F1F1F"/>
<path d="M335.931 203.404C338.011 203.343 340.344 201.678 340.335 201.396C340.327 201.114 337.902 199.587 335.822 199.647C334.782 199.678 333.967 200.543 334.001 201.58C334.027 202.617 334.891 203.434 335.931 203.404Z" fill="#1F1F1F"/>
<path d="M345.069 199.592C342.988 199.653 340.655 201.319 340.663 201.601C340.671 201.883 343.097 203.41 345.177 203.349C346.218 203.319 347.033 202.453 346.999 201.416C346.965 200.378 346.109 199.562 345.069 199.592Z" fill="#1F1F1F"/>
<path d="M368.597 82.9337C368.657 85.0168 370.321 87.3526 370.602 87.3444C370.883 87.3362 372.408 84.908 372.348 82.8249C372.318 81.7833 371.453 80.9667 370.418 81.001C369.378 81.0312 368.562 81.8965 368.597 82.9337Z" fill="#1F1F1F"/>
<path d="M372.405 92.0663C372.343 89.9823 370.678 87.6448 370.397 87.6529C370.115 87.6609 368.59 90.0895 368.652 92.1735C368.683 93.2155 369.548 94.0329 370.584 93.999C371.62 93.9651 372.435 93.0998 372.405 92.0663Z" fill="#1F1F1F"/>
<path d="M365.931 89.4038C368.011 89.3435 370.344 87.678 370.335 87.3962C370.327 87.1145 367.902 85.587 365.822 85.6473C364.782 85.6775 363.967 86.5428 364.001 87.58C364.027 88.6174 364.891 89.434 365.931 89.4038Z" fill="#1F1F1F"/>
<path d="M375.069 85.592C372.988 85.6528 370.655 87.3192 370.663 87.601C370.671 87.8828 373.097 89.4101 375.177 89.3493C376.218 89.3189 377.033 88.4532 376.999 87.4158C376.965 86.3784 376.109 85.5615 375.069 85.592Z" fill="#1F1F1F"/>
</svg>
