<svg width="456" height="300" viewBox="0 0 456 300" fill="none" xmlns="http://www.w3.org/2000/svg">
<rect width="456" height="300" rx="48" fill="white"/>
<path d="M350 115H268C261.373 115 256 120.373 256 127L256 209C256 215.627 261.373 221 268 221H331.874H350C356.627 221 362 215.627 362 209V131.737V127C362 120.373 356.627 115 350 115Z" fill="white" stroke="#1F1F1F"/>
<path d="M264 144H305" stroke="#1B6EF3" stroke-linecap="round"/>
<path d="M264 161H305" stroke="#1F1F1F" stroke-linecap="round"/>
<path d="M272 153H320" stroke="#FCBD00" stroke-linecap="round"/>
<path d="M330 153H355" stroke="#DC362E" stroke-linecap="round"/>
<path d="M264 184H305" stroke="#FCBD00" stroke-linecap="round"/>
<path d="M264 201H305" stroke="#1F1F1F" stroke-linecap="round"/>
<path d="M272 193H320" stroke="#1AA64A" stroke-linecap="round"/>
<path d="M330 193H355" stroke="#1B6EF3" stroke-linecap="round"/>
<circle cx="267" cy="126" r="2.5" stroke="#1F1F1F"/>
<circle cx="277" cy="126" r="2.5" stroke="#1F1F1F"/>
<circle cx="288" cy="126" r="2.5" stroke="#1F1F1F"/>
<path d="M218.5 86.5H104.5C90.6929 86.5 79.5 97.6929 79.5 111.5C79.5 125.307 90.6929 136.5 104.5 136.5H218.5C232.307 136.5 243.5 125.307 243.5 111.5C243.5 97.6929 232.307 86.5 218.5 86.5Z" fill="white" stroke="#1F1F1F" stroke-linecap="round"/>
<rect x="208" y="122" width="19" height="2" fill="#1F1F1F"/>
<path d="M80 111.5C80 97.969 90.969 87 104.5 87H136V136H104.5C90.969 136 80 125.031 80 111.5Z" fill="#E1E3E1"/>
<path d="M143.368 116.99C143.368 115.128 144.096 113.436 145.285 112.18C143.881 110.899 143 109.057 143 107.01C143 103.138 146.149 100 150.034 100C152.035 100 153.842 100.833 155.123 102.17C156.372 101.035 158.035 100.343 159.859 100.343C163.744 100.343 166.893 103.481 166.893 107.353C166.893 109.165 166.203 110.816 165.07 112.06C166.266 113.317 167 115.015 167 116.884C167 120.755 163.851 123.893 159.966 123.893C158.148 123.893 156.49 123.205 155.242 122.077C153.981 123.269 152.277 124 150.402 124C146.517 124 143.368 120.862 143.368 116.99Z" fill="#FCBD00"/>
<path d="M121.086 125L111.878 115.792C111.156 116.394 110.325 116.863 109.386 117.2C108.447 117.537 107.448 117.706 106.389 117.706C103.765 117.706 101.538 116.803 99.7083 114.997C97.9028 113.168 97 110.953 97 108.353C97 105.753 97.9028 103.55 99.7083 101.744C101.538 99.9148 103.753 99 106.353 99C108.977 99 111.192 99.9148 112.997 101.744C114.803 103.55 115.706 105.753 115.706 108.353C115.706 109.412 115.537 110.411 115.2 111.35C114.863 112.289 114.394 113.131 113.792 113.878L123 123.05L121.086 125ZM106.353 114.961C108.206 114.961 109.771 114.323 111.047 113.047C112.347 111.747 112.997 110.182 112.997 108.353C112.997 106.523 112.347 104.958 111.047 103.658C109.771 102.358 108.206 101.708 106.353 101.708C104.523 101.708 102.958 102.358 101.658 103.658C100.358 104.958 99.7083 106.523 99.7083 108.353C99.7083 110.182 100.358 111.747 101.658 113.047C102.958 114.323 104.523 114.961 106.353 114.961Z" fill="#1F1F1F"/>
<rect width="21" height="21" rx="5.05102" transform="matrix(0.707107 0.707107 -0.682794 0.730611 188 97)" fill="#1B6EF3"/>
<path d="M193.242 143.417C180.368 163.098 188.445 184.602 203.262 186.708C218.08 188.815 220.929 160.135 210.145 161.822C199.361 163.51 205.138 194.108 229.355 189.551" stroke="#1F1F1F" stroke-linecap="round"/>
<circle cx="6" cy="6" r="6" transform="matrix(0.822533 0.568718 0.568718 -0.822533 231 189)" fill="#1F1F1F"/>
<path d="M362.425 83.1237C362.523 86.4888 365.21 90.2618 365.665 90.2486C366.119 90.2355 368.583 86.313 368.485 82.9479C368.436 81.2653 367.04 79.9462 365.367 80.0017C363.687 80.0504 362.37 81.4482 362.425 83.1237Z" fill="#1F1F1F"/>
<path d="M368.577 97.8764C368.478 94.5098 365.788 90.734 365.333 90.747C364.878 90.7599 362.415 94.683 362.515 98.0495C362.565 99.7328 363.962 101.053 365.636 100.998C367.309 100.944 368.626 99.5459 368.577 97.8764Z" fill="#1F1F1F"/>
<path d="M358.12 93.5754C361.48 93.4779 365.247 90.7875 365.234 90.3324C365.221 89.8773 361.304 87.4098 357.943 87.5072C356.263 87.556 354.946 88.9538 355.002 90.6292C355.044 92.3051 356.44 93.6242 358.12 93.5754Z" fill="#1F1F1F"/>
<path d="M372.88 87.4178C369.519 87.516 365.751 90.2079 365.764 90.6632C365.777 91.1184 369.694 93.5856 373.055 93.4874C374.736 93.4382 376.054 92.0398 375.998 90.364C375.943 88.6882 374.561 87.3687 372.88 87.4178Z" fill="#1F1F1F"/>
<path d="M128.425 164.124C128.523 167.489 131.21 171.262 131.665 171.249C132.119 171.235 134.583 167.313 134.485 163.948C134.436 162.265 133.04 160.946 131.367 161.002C129.687 161.05 128.37 162.448 128.425 164.124Z" fill="#1F1F1F"/>
<path d="M134.577 178.876C134.478 175.51 131.788 171.734 131.333 171.747C130.878 171.76 128.415 175.683 128.515 179.05C128.565 180.733 129.962 182.053 131.636 181.998C133.309 181.944 134.626 180.546 134.577 178.876Z" fill="#1F1F1F"/>
<path d="M124.12 174.575C127.48 174.478 131.247 171.787 131.234 171.332C131.221 170.877 127.304 168.41 123.943 168.507C122.263 168.556 120.946 169.954 121.002 171.629C121.044 173.305 122.44 174.624 124.12 174.575Z" fill="#1F1F1F"/>
<path d="M138.88 168.418C135.519 168.516 131.751 171.208 131.764 171.663C131.777 172.118 135.694 174.586 139.055 174.487C140.736 174.438 142.054 173.04 141.998 171.364C141.943 169.688 140.561 168.369 138.88 168.418Z" fill="#1F1F1F"/>
</svg>
