<svg width="456" height="300" viewBox="0 0 456 300" fill="none" xmlns="http://www.w3.org/2000/svg">
<rect width="456" height="300" rx="48" fill="white"/>
<rect x="185.5" y="110.5" width="85" height="116" rx="6.06971" fill="white" stroke="#1F1F1F"/>
<path d="M271 128H271.25C271.664 128 272 128.56 272 129.25V136.75C272 137.44 271.664 138 271.25 138H271V128Z" fill="#1F1F1F"/>
<path d="M271 141H271.25C271.664 141 272 141.522 272 142.167V146.833C272 147.478 271.664 148 271.25 148H271V141Z" fill="#1F1F1F"/>
<path d="M289.848 117.067C291.522 118.033 292.096 120.174 291.129 121.848L262.883 170.772C262.807 170.904 262.702 171.018 262.577 171.105L257.825 174.413C257.103 174.916 256.123 174.35 256.197 173.473L256.685 167.704C256.698 167.552 256.744 167.404 256.821 167.272L285.067 118.348C286.034 116.674 288.174 116.1 289.848 117.067Z" fill="#E1E3E1" stroke="#1F1F1F"/>
<path fill-rule="evenodd" clip-rule="evenodd" d="M228.19 189.481C228.209 189.176 227.977 188.913 227.672 188.895C225.931 188.788 224.203 188.531 222.506 188.129C222.209 188.058 221.911 188.242 221.84 188.539C221.769 188.836 221.953 189.134 222.251 189.205C224.009 189.623 225.8 189.888 227.604 189.999C227.909 190.018 228.171 189.786 228.19 189.481ZM232.403 189.377C232.436 189.681 232.71 189.9 233.014 189.866C233.908 189.767 234.801 189.629 235.69 189.452C236.579 189.276 237.457 189.061 238.321 188.811C238.615 188.726 238.784 188.419 238.699 188.125C238.614 187.832 238.307 187.663 238.013 187.748C237.179 187.99 236.332 188.197 235.474 188.367C234.617 188.538 233.755 188.671 232.892 188.767C232.588 188.8 232.369 189.074 232.403 189.377ZM217.839 187.217C217.959 186.937 217.829 186.611 217.548 186.491C216.75 186.149 215.964 185.772 215.192 185.36C214.421 184.947 213.671 184.504 212.943 184.03C212.687 183.864 212.344 183.936 212.177 184.192C212.011 184.448 212.083 184.791 212.339 184.957C213.094 185.448 213.872 185.908 214.671 186.335C215.47 186.762 216.285 187.153 217.112 187.508C217.393 187.628 217.718 187.498 217.839 187.217ZM242.631 186.609C242.765 186.884 243.096 186.997 243.37 186.863C244.994 186.071 246.548 185.14 248.012 184.082C248.26 183.903 248.315 183.557 248.136 183.31C247.957 183.062 247.612 183.006 247.364 183.185C245.951 184.207 244.452 185.105 242.885 185.869C242.61 186.003 242.496 186.334 242.631 186.609ZM208.855 181.6C209.063 181.376 209.05 181.026 208.826 180.818C207.549 179.632 206.375 178.337 205.319 176.95C205.134 176.707 204.787 176.66 204.544 176.845C204.301 177.03 204.254 177.377 204.439 177.62C205.533 179.058 206.749 180.399 208.073 181.629C208.297 181.837 208.647 181.824 208.855 181.6ZM202.289 173.285C202.561 173.144 202.667 172.811 202.526 172.539C202.126 171.769 201.758 170.978 201.423 170.171C201.088 169.363 200.79 168.544 200.527 167.716C200.435 167.425 200.124 167.264 199.833 167.356C199.542 167.448 199.38 167.759 199.473 168.05C199.744 168.908 200.054 169.757 200.401 170.594C200.747 171.431 201.129 172.25 201.544 173.049C201.684 173.32 202.018 173.426 202.289 173.285ZM198.91 163.245C199.212 163.204 199.425 162.925 199.383 162.622C199.149 160.895 199.063 159.15 199.127 157.408C199.138 157.103 198.9 156.846 198.595 156.835C198.289 156.824 198.033 157.062 198.021 157.367C197.955 159.173 198.044 160.981 198.287 162.771C198.328 163.074 198.607 163.286 198.91 163.245ZM199.11 152.653C199.409 152.717 199.703 152.526 199.766 152.227C199.946 151.377 200.163 150.533 200.417 149.696C200.671 148.86 200.96 148.037 201.282 147.231C201.396 146.947 201.258 146.625 200.974 146.512C200.69 146.399 200.368 146.537 200.255 146.82C199.92 147.656 199.621 148.508 199.358 149.375C199.095 150.242 198.87 151.117 198.684 151.998C198.62 152.297 198.812 152.59 199.11 152.653ZM202.869 142.749C203.129 142.909 203.47 142.828 203.63 142.568C204.545 141.084 205.586 139.681 206.741 138.375C206.943 138.146 206.922 137.796 206.693 137.594C206.464 137.391 206.114 137.413 205.912 137.642C204.715 138.995 203.636 140.449 202.688 141.988C202.528 142.248 202.609 142.588 202.869 142.749ZM251.838 137.015C252.054 136.799 252.054 136.449 251.838 136.233C251.197 135.592 250.531 134.982 249.842 134.402C249.609 134.205 249.26 134.235 249.063 134.469C248.866 134.703 248.896 135.052 249.13 135.249C249.795 135.808 250.437 136.397 251.055 137.015C251.272 137.231 251.622 137.231 251.838 137.015ZM209.745 134.689C209.936 134.927 210.284 134.966 210.522 134.775C211.201 134.232 211.904 133.717 212.631 133.231C213.358 132.746 214.103 132.293 214.864 131.874C215.132 131.727 215.229 131.391 215.082 131.123C214.935 130.855 214.598 130.758 214.331 130.905C213.542 131.339 212.77 131.808 212.016 132.312C211.263 132.815 210.534 133.349 209.831 133.911C209.592 134.102 209.554 134.45 209.745 134.689ZM245.617 132.043C245.771 131.779 245.682 131.44 245.418 131.287C243.857 130.377 242.22 129.603 240.526 128.973C240.239 128.867 239.921 129.013 239.814 129.299C239.708 129.586 239.854 129.904 240.14 130.01C241.775 130.618 243.354 131.365 244.861 132.243C245.125 132.396 245.463 132.307 245.617 132.043ZM218.935 129.416C219.034 129.705 219.349 129.858 219.638 129.759C221.287 129.192 222.982 128.767 224.703 128.49C225.005 128.442 225.21 128.158 225.162 127.856C225.113 127.555 224.829 127.35 224.528 127.398C222.743 127.685 220.987 128.125 219.278 128.713C218.989 128.812 218.835 129.127 218.935 129.416ZM235.753 128.175C235.809 127.875 235.611 127.586 235.31 127.53C234.425 127.366 233.531 127.238 232.629 127.15C231.727 127.061 230.825 127.011 229.925 127C229.619 126.996 229.368 127.241 229.365 127.546C229.361 127.852 229.605 128.103 229.911 128.106C230.78 128.117 231.65 128.165 232.52 128.251C233.39 128.336 234.254 128.459 235.108 128.618C235.408 128.674 235.697 128.476 235.753 128.175Z" fill="#1F1F1F"/>
<path d="M230.378 162.61V155.542H248.516C248.787 156.739 249 157.86 249 159.437C249 170.286 241.578 178 230.397 178C219.681 178 211 169.488 211 159C211 148.512 219.681 140 230.378 140C235.61 140 239.989 141.881 243.342 144.959L237.838 150.203C236.443 148.911 234.021 147.372 230.378 147.372C223.964 147.372 218.732 152.597 218.732 159C218.732 165.403 223.964 170.628 230.378 170.628C237.8 170.628 240.532 165.593 241.036 162.61H230.378Z" fill="#1F1F1F"/>
<path d="M252 226H269L261.871 183L252 226Z" fill="black"/>
<rect x="-0.5" y="0.5" width="71" height="47" rx="6.06971" transform="matrix(-1 0 0 1 332 179)" fill="white" stroke="#1F1F1F"/>
<path d="M315.333 173.052C318.222 174.535 318.222 178.465 315.333 179.948L299.608 188.021C296.816 189.454 293.5 187.505 293.5 184.572L293.5 168.428C293.5 165.495 296.816 163.546 299.608 164.979L315.333 173.052Z" fill="white" stroke="#DC362E"/>
<rect width="220" height="1" rx="0.5" transform="matrix(-1 0 0 1 335 226)" fill="#1F1F1F"/>
<rect x="-0.5" y="0.5" width="31" height="31" transform="matrix(-1 0 0 1 162 195)" fill="white" stroke="#1F1F1F"/>
<rect x="-0.5" y="0.5" width="31" height="31" transform="matrix(-1 0 0 1 193 195)" fill="white" stroke="#1F1F1F"/>
<rect x="-0.5" y="0.5" width="31" height="31" transform="matrix(-1 5.18986e-09 5.18986e-09 1 162 164)" fill="white" stroke="#1F1F1F"/>
<path d="M138.276 183.743C138.276 182.347 138.822 181.077 139.714 180.136C138.661 179.175 138 177.793 138 176.258C138 173.354 140.362 171 143.275 171C144.777 171 146.131 171.625 147.092 172.628C148.029 171.777 149.276 171.258 150.644 171.258C153.558 171.258 155.92 173.611 155.92 176.515C155.92 177.874 155.402 179.113 154.553 180.046C155.45 180.988 156 182.262 156 183.663C156 186.567 153.638 188.92 150.725 188.92C149.361 188.92 148.118 188.405 147.181 187.558C146.236 188.452 144.958 189 143.551 189C140.638 189 138.276 186.647 138.276 183.743Z" fill="#1B6EF3"/>
<g clip-path="url(#clip0_2015_2432)">
<path d="M144.25 221L143.85 217.8C143.633 217.717 143.425 217.617 143.225 217.5C143.042 217.383 142.858 217.258 142.675 217.125L139.7 218.375L136.95 213.625L139.525 211.675C139.508 211.558 139.5 211.45 139.5 211.35C139.5 211.233 139.5 211.117 139.5 211C139.5 210.883 139.5 210.775 139.5 210.675C139.5 210.558 139.508 210.442 139.525 210.325L136.95 208.375L139.7 203.625L142.675 204.875C142.858 204.742 143.05 204.617 143.25 204.5C143.45 204.383 143.65 204.283 143.85 204.2L144.25 201H149.75L150.15 204.2C150.367 204.283 150.567 204.383 150.75 204.5C150.95 204.617 151.142 204.742 151.325 204.875L154.3 203.625L157.05 208.375L154.475 210.325C154.492 210.442 154.5 210.558 154.5 210.675C154.5 210.775 154.5 210.883 154.5 211C154.5 211.117 154.5 211.233 154.5 211.35C154.5 211.45 154.483 211.558 154.45 211.675L157.025 213.625L154.275 218.375L151.325 217.125C151.142 217.258 150.95 217.383 150.75 217.5C150.55 217.617 150.35 217.717 150.15 217.8L149.75 221H144.25ZM146 219H147.975L148.325 216.35C148.842 216.217 149.317 216.025 149.75 215.775C150.2 215.508 150.608 215.192 150.975 214.825L153.45 215.85L154.425 214.15L152.275 212.525C152.358 212.292 152.417 212.05 152.45 211.8C152.483 211.533 152.5 211.267 152.5 211C152.5 210.733 152.483 210.475 152.45 210.225C152.417 209.958 152.358 209.708 152.275 209.475L154.425 207.85L153.45 206.15L150.975 207.2C150.608 206.817 150.2 206.5 149.75 206.25C149.317 205.983 148.842 205.783 148.325 205.65L148 203H146.025L145.675 205.65C145.158 205.783 144.675 205.983 144.225 206.25C143.792 206.5 143.392 206.808 143.025 207.175L140.55 206.15L139.575 207.85L141.725 209.45C141.642 209.7 141.583 209.95 141.55 210.2C141.517 210.45 141.5 210.717 141.5 211C141.5 211.267 141.517 211.525 141.55 211.775C141.583 212.025 141.642 212.275 141.725 212.525L139.575 214.15L140.55 215.85L143.025 214.8C143.392 215.183 143.792 215.508 144.225 215.775C144.675 216.025 145.158 216.217 145.675 216.35L146 219ZM147.05 214.5C148.017 214.5 148.842 214.158 149.525 213.475C150.208 212.792 150.55 211.967 150.55 211C150.55 210.033 150.208 209.208 149.525 208.525C148.842 207.842 148.017 207.5 147.05 207.5C146.067 207.5 145.233 207.842 144.55 208.525C143.883 209.208 143.55 210.033 143.55 211C143.55 211.967 143.883 212.792 144.55 213.475C145.233 214.158 146.067 214.5 147.05 214.5Z" fill="#1F1F1F"/>
</g>
<rect width="16" height="16" rx="3.54358" transform="matrix(0.707107 0.707107 -0.682794 0.730611 177.925 200)" fill="#1AA64A"/>
<path d="M169.425 92.1237C169.523 95.4888 172.21 99.2618 172.665 99.2486C173.119 99.2355 175.583 95.313 175.485 91.9479C175.436 90.2653 174.04 88.9462 172.367 89.0017C170.687 89.0504 169.37 90.4482 169.425 92.1237Z" fill="#1F1F1F"/>
<path d="M175.577 106.876C175.478 103.51 172.788 99.734 172.333 99.747C171.878 99.7599 169.415 103.683 169.515 107.05C169.565 108.733 170.962 110.053 172.636 109.998C174.309 109.944 175.626 108.546 175.577 106.876Z" fill="#1F1F1F"/>
<path d="M165.12 102.575C168.48 102.478 172.247 99.7875 172.234 99.3324C172.221 98.8773 168.304 96.4098 164.943 96.5072C163.263 96.556 161.946 97.9538 162.002 99.6292C162.044 101.305 163.44 102.624 165.12 102.575Z" fill="#1F1F1F"/>
<path d="M179.88 96.4178C176.519 96.516 172.751 99.2079 172.764 99.6632C172.777 100.118 176.694 102.586 180.055 102.487C181.736 102.438 183.054 101.04 182.998 99.364C182.943 97.6882 181.561 96.3687 179.88 96.4178Z" fill="#1F1F1F"/>
<path d="M318.841 210L288.07 226.527" stroke="#1F1F1F" stroke-linecap="round"/>
<g filter="url(#filter0_b_2015_2432)">
<circle cx="6" cy="6" r="6" transform="matrix(-1 0 0 1 316.841 215)" fill="white"/>
<circle cx="6" cy="6" r="5.5" transform="matrix(-1 0 0 1 316.841 215)" stroke="#1F1F1F"/>
</g>
<defs>
<filter id="filter0_b_2015_2432" x="297.147" y="207.305" width="27.3895" height="27.3895" filterUnits="userSpaceOnUse" color-interpolation-filters="sRGB">
<feFlood flood-opacity="0" result="BackgroundImageFix"/>
<feGaussianBlur in="BackgroundImageFix" stdDeviation="3.84738"/>
<feComposite in2="SourceAlpha" operator="in" result="effect1_backgroundBlur_2015_2432"/>
<feBlend mode="normal" in="SourceGraphic" in2="effect1_backgroundBlur_2015_2432" result="shape"/>
</filter>
<clipPath id="clip0_2015_2432">
<rect width="24" height="24" fill="white" transform="translate(135 199)"/>
</clipPath>
</defs>
</svg>
