<svg width="456" height="300" viewBox="0 0 456 300" fill="none" xmlns="http://www.w3.org/2000/svg">
<rect width="456" height="300" rx="48" fill="white"/>
<path d="M124 225.5C124 225.224 124.224 225 124.5 225H288.5C288.776 225 289 225.224 289 225.5C289 225.776 288.776 226 288.5 226H124.5C124.224 226 124 225.776 124 225.5Z" fill="#1F1F1F"/>
<path d="M297 225.5C297 225.224 297.224 225 297.5 225H312.5C312.776 225 313 225.224 313 225.5C313 225.776 312.776 226 312.5 226H297.5C297.224 226 297 225.776 297 225.5Z" fill="#1F1F1F"/>
<path d="M159.5 185.5L170.349 145.5M179.5 136L174.89 136.988C173.423 137.302 172.255 138.411 171.865 139.861L170.349 145.5M170.349 145.5H244.5M170.349 145.5L201.5 180M244.5 145.5L211.5 179M244.5 145.5L250 139" stroke="#1F1F1F" stroke-linecap="round"/>
<circle cx="3" cy="3" r="3" transform="matrix(-1 0 0 1 184 132)" fill="#1F1F1F"/>
<path d="M211.5 179L261 183.821M209 201.5L261.5 196.5" stroke="#1F1F1F" stroke-linecap="round"/>
<path d="M256.844 139.311C258.008 139.311 258.958 138.297 258.582 137.196C255.616 128.511 238.667 131.911 229.95 136.569C228.379 137.408 229.047 139.311 230.829 139.311L242.5 139.311H256.844Z" fill="#1F1F1F"/>
<path d="M190.18 198.937C185.206 217.503 167.15 228.733 149.901 224.111C132.651 219.489 122.629 200.735 127.604 182.17C132.579 163.605 150.635 152.374 167.884 156.996C185.133 161.618 195.155 180.372 190.18 198.937Z" stroke="#1F1F1F"/>
<path d="M140.766 156.723C141 156.576 141.07 156.268 140.923 156.034C140.776 155.8 140.467 155.73 140.234 155.877L140.766 156.723ZM123.103 181.007C125.934 170.44 132.475 161.942 140.766 156.723L140.234 155.877C131.73 161.229 125.034 169.937 122.137 180.748L123.103 181.007Z" fill="#1F1F1F"/>
<path d="M293.18 198.937C288.206 217.503 270.15 228.733 252.901 224.111C235.651 219.489 225.629 200.735 230.604 182.17C235.579 163.605 253.635 152.374 270.884 156.996C288.133 161.618 298.155 180.372 293.18 198.937Z" stroke="#1F1F1F"/>
<circle cx="261" cy="190" r="6.5" fill="white" stroke="#1F1F1F"/>
<circle cx="208" cy="190" r="11.5" stroke="#1F1F1F"/>
<circle cx="158" cy="190" r="4.5" stroke="#1F1F1F"/>
<path d="M158 199C153.029 199 149 194.971 149 190" stroke="#1F1F1F" stroke-linecap="round"/>
<circle cx="261" cy="190" r="3" fill="#1F1F1F"/>
<path d="M310.11 85.7541C313.987 78.0731 318.765 72.9652 324.496 74.178C332.467 76.9331 331.911 86.7094 326.962 94.2191C328.765 93.9387 330.755 93.9642 332.928 94.4239C342.895 96.533 335.897 117.383 297 134C280.405 95.1431 309.354 66.7713 310.11 85.7541Z" fill="#80DA88"/>
<rect x="245.5" y="82.5" width="59" height="121" rx="11.5" fill="white" stroke="#1F1F1F"/>
<rect x="256" y="181" width="43" height="1" rx="0.5" fill="#1F1F1F"/>
<rect x="256" y="186" width="30" height="1" rx="0.5" fill="#1F1F1F"/>
<path d="M305 110H305.154C305.621 110 306 110.379 306 110.846V115.154C306 115.621 305.621 116 305.154 116H305V110Z" fill="#1F1F1F"/>
<path d="M305 99H305.154C305.621 99 306 99.3789 306 99.8463V107.154C306 107.621 305.621 108 305.154 108H305V99Z" fill="#1F1F1F"/>
<rect x="268" y="147" width="56" height="26" rx="13" fill="#1B6EF3"/>
<rect x="291" y="153.455" width="12" height="13.0909" rx="6" fill="#1B6EF3"/>
<path d="M295 119C295 119 293.63 127.222 289.5 132.552M261 119C261 119 271 137 281.5 137C284.904 137 287.519 135.109 289.5 132.552M289.5 132.552C285 131.5 278 127 277.5 118.5" stroke="black"/>
<path d="M298 120.5C298 117.414 297.392 114.358 296.211 111.507C295.03 108.656 293.299 106.065 291.117 103.883C288.935 101.701 286.344 99.9698 283.493 98.7888C280.642 97.6078 277.586 97 274.5 97C271.414 97 268.358 97.6078 265.507 98.7888C262.656 99.9698 260.065 101.701 257.883 103.883C255.701 106.065 253.97 108.656 252.789 111.507C251.608 114.358 251 117.414 251 120.5L274.5 120.5H298Z" fill="#EC928E"/>
<rect x="277" y="135" width="9" height="4" rx="2" fill="#1F1F1F"/>
<g clip-path="url(#clip0_2015_2580)">
<path d="M291.95 167.2C291.575 167.2 291.256 167.069 290.994 166.806C290.731 166.544 290.6 166.225 290.6 165.85C290.6 165.475 290.731 165.156 290.994 164.894C291.256 164.631 291.575 164.5 291.95 164.5C292.325 164.5 292.644 164.631 292.906 164.894C293.169 165.156 293.3 165.475 293.3 165.85C293.3 166.225 293.169 166.544 292.906 166.806C292.644 167.069 292.325 167.2 291.95 167.2ZM300.05 167.2C299.675 167.2 299.356 167.069 299.094 166.806C298.831 166.544 298.7 166.225 298.7 165.85C298.7 165.475 298.831 165.156 299.094 164.894C299.356 164.631 299.675 164.5 300.05 164.5C300.425 164.5 300.744 164.631 301.006 164.894C301.269 165.156 301.4 165.475 301.4 165.85C301.4 166.225 301.269 166.544 301.006 166.806C300.744 167.069 300.425 167.2 300.05 167.2ZM291.744 155.95L293.3 159.55H298.944L300.481 155.95H291.744ZM291.163 154.6H301.85C302.025 154.6 302.15 154.669 302.225 154.806C302.313 154.944 302.325 155.087 302.263 155.237L300.181 160.075C300.069 160.325 299.9 160.525 299.675 160.675C299.463 160.825 299.219 160.9 298.944 160.9H292.944L292.156 162.25H301.4V163.6H292.175C291.638 163.6 291.238 163.375 290.975 162.925C290.725 162.475 290.731 162.025 290.994 161.575L291.969 159.887L289.513 154.15H287.9V152.8H290.394L291.163 154.6ZM293.3 159.55H298.944H293.3Z" fill="white"/>
</g>
<path d="M227 225C225.754 217.682 212.502 215.468 208.048 217.832C222 206.5 195.987 191.401 184.5 225L227 225Z" fill="#80DA88"/>
<path d="M222.657 94.3799C222.732 96.9438 224.779 99.8185 225.126 99.8085C225.472 99.7984 227.349 96.8099 227.274 94.246C227.237 92.9641 226.173 91.959 224.899 92.0013C223.619 92.0384 222.615 93.1034 222.657 94.3799Z" fill="#1F1F1F"/>
<path d="M227.344 105.62C227.269 103.055 225.219 100.178 224.873 100.188C224.526 100.198 222.65 103.187 222.726 105.752C222.763 107.035 223.828 108.04 225.103 107.999C226.379 107.957 227.382 106.892 227.344 105.62Z" fill="#1F1F1F"/>
<path d="M219.377 102.343C221.937 102.269 224.807 100.219 224.797 99.8723C224.787 99.5255 221.803 97.6455 219.242 97.7198C217.962 97.7569 216.959 98.8219 217.001 100.098C217.033 101.375 218.097 102.38 219.377 102.343Z" fill="#1F1F1F"/>
<path d="M230.623 97.6516C228.062 97.7265 225.191 99.7775 225.201 100.124C225.211 100.471 228.196 102.351 230.757 102.276C232.037 102.239 233.041 101.173 232.999 99.8964C232.957 98.6195 231.903 97.6142 230.623 97.6516Z" fill="#1F1F1F"/>
<defs>
<clipPath id="clip0_2015_2580">
<rect width="24" height="24" fill="white" transform="translate(284 148)"/>
</clipPath>
</defs>
</svg>
