<svg width="456" height="300" viewBox="0 0 456 300" fill="none" xmlns="http://www.w3.org/2000/svg">
<rect width="456" height="300" rx="48" fill="white"/>
<path d="M109.5 141C109.5 132.44 116.44 125.5 125 125.5H238C246.56 125.5 253.5 132.44 253.5 141V222.5H109.5V141Z" fill="#80DA88" stroke="#1F1F1F"/>
<mask id="mask0_2015_2711" style="mask-type:alpha" maskUnits="userSpaceOnUse" x="110" y="126" width="143" height="97">
<path d="M110.5 142C110.5 133.44 117.44 126.5 126 126.5H237C245.56 126.5 252.5 133.44 252.5 142V222.5H110.5V142Z" fill="#6DD58C" stroke="#1F1F1F"/>
</mask>
<g mask="url(#mask0_2015_2711)">
<circle cx="173.427" cy="205.376" r="44.5" transform="rotate(33.2187 173.427 205.376)" stroke="white" stroke-width="4"/>
<circle cx="5.5" cy="5.5" r="5.5" transform="matrix(0.836586 0.547836 0.547836 -0.836586 163.819 209.643)" fill="white"/>
<rect x="223" y="126" width="4" height="141" transform="rotate(33.2187 223 126)" fill="white"/>
</g>
<circle cx="183.5" cy="135.5" r="1.5" fill="#1F1F1F"/>
<path d="M139.5 223C139.5 221.067 141.067 219.5 143 219.5H273C274.933 219.5 276.5 221.067 276.5 223C276.5 224.933 274.933 226.5 273 226.5H143C141.067 226.5 139.5 224.933 139.5 223Z" fill="white" stroke="#1F1F1F"/>
<path d="M109.5 223C109.5 221.067 111.067 219.5 113 219.5H148C149.933 219.5 151.5 221.067 151.5 223C151.5 224.933 149.933 226.5 148 226.5H113C111.067 226.5 109.5 224.933 109.5 223Z" fill="#1F1F1F" stroke="#1F1F1F"/>
<path d="M224 87.5H287C291.142 87.5 294.5 90.8579 294.5 95V99.4737V158C294.5 162.142 291.142 165.5 287 165.5H272.547H224C219.858 165.5 216.5 162.142 216.5 158L216.5 95C216.5 90.8579 219.858 87.5 224 87.5Z" fill="white" stroke="#1F1F1F"/>
<circle cx="225.5" cy="96.5" r="2" stroke="#1F1F1F"/>
<circle cx="233.5" cy="96.5" r="2" stroke="#1F1F1F"/>
<circle cx="241.5" cy="96.5" r="2" stroke="#1F1F1F"/>
<path d="M217 153.527C241.116 151.004 239.418 116.938 258.995 116.938C277.705 116.938 277.537 132.078 294.168 132.078" stroke="#4C8DF6" stroke-width="2"/>
<path d="M217 153.527C241.245 151.008 239.12 139.255 258.801 139.255C277.612 139.255 277.448 109.453 294.168 109.453" stroke="#DC362E" stroke-width="2"/>
<path d="M253 166H224L253 175V166Z" fill="black"/>
<path d="M350.555 159.406L328.63 137.331L323.377 141.83L345.746 164.2C347.035 165.489 349.126 165.489 350.415 164.2L350.547 164.068C351.833 162.782 351.837 160.697 350.555 159.406Z" fill="#1AA64A" stroke="#1F1F1F"/>
<g filter="url(#filter0_b_2015_2711)">
<circle cx="35.0991" cy="35.0991" r="35.0991" transform="matrix(-0.707093 0.70712 0.707093 0.70712 301.902 64.2646)" fill="white" fill-opacity="0.01"/>
<circle cx="35.0991" cy="35.0991" r="34.5991" transform="matrix(-0.707093 0.70712 0.707093 0.70712 301.902 64.2646)" stroke="#1F1F1F"/>
</g>
<path d="M272.068 113.404C272.068 96.9266 285.425 83.5693 301.902 83.5693" stroke="#1F1F1F" stroke-linecap="round"/>
<rect width="7.01981" height="8.77476" transform="matrix(-0.707093 0.70712 0.707093 0.70712 328.226 136.218)" fill="#1F1F1F"/>
<rect x="214" y="226" width="124" height="1" rx="0.5" fill="#1F1F1F"/>
<path d="M110.008 103C91.7867 103 77.0156 117.775 77.0156 136C77.0156 154.225 91.7867 169 110.008 169C128.229 169 143 154.225 143 136C143 117.775 128.229 103 110.008 103Z" fill="white" stroke="#1F1F1F" stroke-linecap="round" stroke-linejoin="round"/>
<path d="M131.289 145.351C130.752 143.704 131.338 141.898 132.738 140.879L142.902 133.482C142.97 134.312 142.999 135.152 142.999 136.002C142.999 144.134 140.064 151.58 135.188 157.326L131.289 145.351Z" fill="#1F1F1F"/>
<path d="M117.765 103.902C126.31 105.969 133.552 111.348 138.051 118.62L125.467 118.62C123.736 118.62 122.201 117.506 121.664 115.86L117.765 103.902Z" fill="#1F1F1F"/>
<path d="M97.4882 166.531L108.256 158.707C109.308 157.942 110.733 157.943 111.785 158.708L122.524 166.522C118.662 168.115 114.433 168.994 109.992 168.994C105.55 168.994 101.341 168.125 97.4882 166.531Z" fill="#1F1F1F"/>
<path d="M81.907 118.692C86.3871 111.411 93.6189 106.012 102.145 103.926L98.2692 115.908C97.7359 117.557 96.2014 118.675 94.4683 118.677L81.907 118.692Z" fill="#1F1F1F"/>
<path d="M76.9998 135.991C76.9998 135.17 77.0287 134.359 77.0867 133.557L87.2738 140.939C88.6779 141.956 89.2666 143.762 88.7318 145.412L84.8592 157.354C79.9543 151.607 76.9998 144.142 76.9998 135.991Z" fill="#1F1F1F"/>
<path d="M107.672 147.511C109.074 148.528 110.971 148.528 112.373 147.51L120.28 141.77C121.682 140.751 122.269 138.945 121.734 137.296L118.713 128.001C118.177 126.353 116.641 125.237 114.908 125.237L105.137 125.237C103.404 125.237 101.868 126.353 101.332 128.001L98.3113 137.296C97.7755 138.945 98.3626 140.751 99.7653 141.77L107.672 147.511Z" fill="#1F1F1F"/>
<path d="M110.008 103C91.7867 103 77.0156 117.775 77.0156 136C77.0156 154.225 91.7867 169 110.008 169C128.229 169 143 154.225 143 136C143 117.775 128.229 103 110.008 103Z" stroke="#1F1F1F" stroke-linecap="round" stroke-linejoin="round"/>
<defs>
<filter id="filter0_b_2015_2711" x="263.002" y="75.0018" width="77.8001" height="77.803" filterUnits="userSpaceOnUse" color-interpolation-filters="sRGB">
<feFlood flood-opacity="0" result="BackgroundImageFix"/>
<feGaussianBlur in="BackgroundImageFix" stdDeviation="1.90094"/>
<feComposite in2="SourceAlpha" operator="in" result="effect1_backgroundBlur_2015_2711"/>
<feBlend mode="normal" in="SourceGraphic" in2="effect1_backgroundBlur_2015_2711" result="shape"/>
</filter>
</defs>
</svg>
