<svg width="456" height="300" viewBox="0 0 456 300" fill="none" xmlns="http://www.w3.org/2000/svg">
<rect width="456" height="300" rx="48" fill="white"/>
<path d="M123.711 107.322C128.064 99.5595 138.936 99.5595 143.289 107.322L173.964 162.014C178.334 169.805 172.858 179.5 164.175 179.5H102.825C94.1422 179.5 88.6659 169.805 93.0355 162.014L123.711 107.322Z" fill="#FCBD00" stroke="#1F1F1F"/>
<rect x="130.346" y="125.045" width="6.55769" height="26.2308" rx="3.27885" fill="#1F1F1F"/>
<rect x="130.346" y="155.647" width="6.55769" height="6.55769" rx="3.27885" fill="#1F1F1F"/>
<rect x="176" y="226" width="124" height="1" rx="0.5" fill="#1F1F1F"/>
<rect x="146.5" y="84.5" width="105" height="142" rx="13.6333" fill="white" stroke="#1F1F1F"/>
<path d="M252 106H252.5C253.328 106 254 106.672 254 107.5V116.5C254 117.328 253.328 118 252.5 118H252V106Z" fill="#1F1F1F"/>
<path d="M252 123H252.5C253.328 123 254 123.597 254 124.333V129.667C254 130.403 253.328 131 252.5 131H252V123Z" fill="#1F1F1F"/>
<mask id="mask0_2015_2868" style="mask-type:alpha" maskUnits="userSpaceOnUse" x="146" y="84" width="106" height="143">
<rect x="146.5" y="84.5" width="105" height="142" rx="13.5" fill="white" stroke="#1F1F1F"/>
</mask>
<g mask="url(#mask0_2015_2868)">
<path d="M123.275 107.077C127.819 98.9744 139.181 98.9744 143.725 107.077L174.401 161.769C178.945 169.872 173.264 180 164.175 180H102.825C93.7356 180 88.0549 169.872 92.5994 161.769L123.275 107.077Z" fill="black"/>
</g>
<path d="M331 142H331.238C331.659 142 332 142.341 332 142.762V146.238C332 146.659 331.659 147 331.238 147H331V142Z" fill="#1F1F1F"/>
<path d="M331 132H331.238C331.659 132 332 132.341 332 132.762V139.238C332 139.659 331.659 140 331.238 140H331V132Z" fill="#1F1F1F"/>
<rect x="278.5" y="117.5" width="52" height="109" rx="9.5" fill="#E1E3E1" stroke="#1F1F1F"/>
<circle cx="305" cy="122" r="1" fill="#1F1F1F"/>
<rect x="292.5" y="157.5" width="58" height="35" rx="3.88926" fill="white" stroke="#1F1F1F"/>
<path d="M349 158L294 158L320.197 178.376C320.671 178.744 321.333 178.75 321.814 178.39L349 158Z" fill="#1F1F1F"/>
<path d="M320.229 176.437L295 158L348 158L321.781 176.45C321.314 176.779 320.69 176.773 320.229 176.437Z" fill="white"/>
<path d="M330 193H297L330 204V193Z" fill="black"/>
<path d="M177.946 153.994C177.946 153.994 205.83 170.392 220.011 149.734C230.739 134.107 213.507 114.52 200.133 120.89C186.758 127.261 184.327 167.268 259.409 165.275" stroke="#1F1F1F" stroke-linecap="round"/>
<circle cx="269.5" cy="164.5" r="4.5" fill="#1F1F1F"/>
<circle cx="349" cy="158" r="7" fill="#DC362E"/>
<path d="M360 158C360 151.925 355.075 147 349 147" stroke="#1F1F1F" stroke-linecap="round"/>
<path d="M136.5 184.5H113" stroke="#1F1F1F" stroke-linecap="round"/>
<path d="M256 95C256 86.7157 249.284 80 241 80" stroke="#1F1F1F" stroke-linecap="round"/>
</svg>
