<svg width="456" height="300" viewBox="0 0 456 300" fill="none" xmlns="http://www.w3.org/2000/svg">
<rect width="456" height="300" rx="48" fill="white"/>
<rect x="167" y="84" width="106" height="143" rx="14.1333" fill="white"/>
<path fill-rule="evenodd" clip-rule="evenodd" d="M167 95.5C167 88.5964 172.596 83 179.5 83H261.5C268.404 83 274 88.5964 274 95.5V132.5H273V95.5C273 89.1487 267.851 84 261.5 84H179.5C173.149 84 168 89.1487 168 95.5V214.5C168 220.851 173.149 226 179.5 226H216V227H179.5C172.596 227 167 221.404 167 214.5V95.5Z" fill="#1F1F1F"/>
<path d="M273 106H273.5C274.328 106 275 106.672 275 107.5V116.5C275 117.328 274.328 118 273.5 118H273V106Z" fill="#1F1F1F"/>
<path d="M273 123H273.5C274.328 123 275 123.597 275 124.333V129.667C275 130.403 274.328 131 273.5 131H273V123Z" fill="#1F1F1F"/>
<path d="M260 113.514C260 110.279 257.977 107.388 254.938 106.284L225.109 95.4582C223.422 94.8473 221.57 94.8473 219.883 95.4582L190.062 106.284C187.023 107.388 185 110.279 185 113.514V134.084C185.07 137.609 185.344 141.016 185.813 144.51C188.031 159.471 196.461 176.414 219.562 188.289C221.406 189.237 223.602 189.237 225.438 188.289C248.539 176.422 256.969 159.471 259.188 144.51C259.656 141.016 259.93 137.616 260 134.091V113.514Z" fill="#1B6EF3"/>
<g filter="url(#filter0_b_2015_3027)">
<path d="M292 132H221C214.373 132 209 137.373 209 144L209 215C209 221.627 214.373 227 221 227H277H292C298.627 227 304 221.627 304 215V147V144C304 137.373 298.627 132 292 132Z" fill="white"/>
</g>
<mask id="mask0_2015_3027" style="mask-type:alpha" maskUnits="userSpaceOnUse" x="209" y="132" width="95" height="95">
<path d="M221 132.5H292C298.351 132.5 303.5 137.649 303.5 144V147V215C303.5 221.351 298.351 226.5 292 226.5H277H221C214.649 226.5 209.5 221.351 209.5 215L209.5 144C209.5 137.649 214.649 132.5 221 132.5Z" fill="white" stroke="#1F1F1F"/>
</mask>
<g mask="url(#mask0_2015_3027)">
<path d="M260 113.514C260 110.279 257.977 107.388 254.938 106.284L225.109 95.4582C223.422 94.8473 221.57 94.8473 219.883 95.4582L190.062 106.284C187.023 107.388 185 110.279 185 113.514V134.084C185.07 137.609 185.344 141.016 185.813 144.51C188.031 159.471 196.461 176.414 219.562 188.289C221.406 189.237 223.602 189.237 225.438 188.289C248.539 176.422 256.969 159.471 259.188 144.51C259.656 141.016 259.93 137.616 260 134.091V113.514Z" fill="#A8C7FA"/>
</g>
<g filter="url(#filter1_b_2015_3027)">
<path d="M292 132H221C214.373 132 209 137.373 209 144L209 215C209 221.627 214.373 227 221 227H277H292C298.627 227 304 221.627 304 215V147V144C304 137.373 298.627 132 292 132Z" fill="white" fill-opacity="0.01"/>
<path d="M221 132.5H292C298.351 132.5 303.5 137.649 303.5 144V147V215C303.5 221.351 298.351 226.5 292 226.5H277H221C214.649 226.5 209.5 221.351 209.5 215L209.5 144C209.5 137.649 214.649 132.5 221 132.5Z" stroke="#1F1F1F"/>
</g>
<circle cx="220" cy="141" r="3" fill="#1F1F1F"/>
<circle cx="229" cy="141" r="3" fill="#1F1F1F"/>
<circle cx="239" cy="141" r="3" fill="#1F1F1F"/>
<path d="M335 159C335 140.222 319.778 125 301 125C282.222 125 267 140.222 267 159V181.509C267 187.855 272.145 193 278.491 193H301C319.778 193 335 177.778 335 159Z" fill="#1AA64A"/>
<path d="M289 168C289 161.373 294.373 156 301 156C307.627 156 313 161.373 313 168V177.231C313 178.208 312.208 179 311.231 179H290.769C289.792 179 289 178.208 289 177.231V168Z" fill="white"/>
<path d="M300.5 152C304.09 152 307 149.09 307 145.5C307 141.91 304.09 139 300.5 139C296.91 139 294 141.91 294 145.5C294 149.09 296.91 152 300.5 152Z" fill="white"/>
<path d="M327 125C336.712 132.455 343 144.369 343 157.794C343 169.235 338.433 179.579 331.072 187" stroke="#1F1F1F" stroke-linecap="round"/>
<path d="M303 193H279L303 204V193Z" fill="black"/>
<circle cx="158" cy="138" r="33.5" fill="white" stroke="#1F1F1F"/>
<path d="M127 106C118.988 113.893 114 125.007 114 137.318C114 145.217 116.053 152.622 119.64 159" stroke="#1F1F1F" stroke-linecap="round"/>
<path d="M158 141.8L158 134.36L176.72 134.36C177 135.62 177.22 136.8 177.22 138.46C177.22 149.88 169.56 158 158.02 158C146.96 158 138 149.04 138 138C138 126.96 146.96 118 158 118C163.4 118 167.92 119.98 171.38 123.22L165.7 128.74C164.26 127.38 161.76 125.76 158 125.76C151.38 125.76 145.98 131.26 145.98 138C145.98 144.74 151.38 150.24 158 150.24C165.66 150.24 168.48 144.94 169 141.8L158 141.8Z" fill="#1F1F1F"/>
<rect x="138" y="226" width="100" height="1" rx="0.5" fill="#1F1F1F"/>
<defs>
<filter id="filter0_b_2015_3027" x="205" y="128" width="103" height="103" filterUnits="userSpaceOnUse" color-interpolation-filters="sRGB">
<feFlood flood-opacity="0" result="BackgroundImageFix"/>
<feGaussianBlur in="BackgroundImageFix" stdDeviation="2"/>
<feComposite in2="SourceAlpha" operator="in" result="effect1_backgroundBlur_2015_3027"/>
<feBlend mode="normal" in="SourceGraphic" in2="effect1_backgroundBlur_2015_3027" result="shape"/>
</filter>
<filter id="filter1_b_2015_3027" x="205" y="128" width="103" height="103" filterUnits="userSpaceOnUse" color-interpolation-filters="sRGB">
<feFlood flood-opacity="0" result="BackgroundImageFix"/>
<feGaussianBlur in="BackgroundImageFix" stdDeviation="2"/>
<feComposite in2="SourceAlpha" operator="in" result="effect1_backgroundBlur_2015_3027"/>
<feBlend mode="normal" in="SourceGraphic" in2="effect1_backgroundBlur_2015_3027" result="shape"/>
</filter>
</defs>
</svg>
