<svg width="456" height="300" viewBox="0 0 456 300" fill="none" xmlns="http://www.w3.org/2000/svg">
<rect width="456" height="300" rx="48" fill="white"/>
<path d="M153.815 154.78C146.843 157.04 138.89 155.485 133.331 150.082C125.399 142.371 125.35 129.742 133.221 121.874C141.093 114.006 153.904 113.879 161.837 121.59C167.395 126.993 169.083 134.811 166.887 141.714C173.858 139.454 181.812 141.009 187.37 146.412C195.302 154.123 195.351 166.753 187.48 174.621C179.608 182.488 166.797 182.615 158.865 174.904C153.307 169.501 151.619 161.683 153.815 154.78Z" fill="#FCBD00"/>
<rect x="165" y="129" width="127" height="84" rx="12.4132" fill="white"/>
<rect width="75" height="35" rx="17.5" transform="matrix(-1 0 0 1 330 152)" fill="#A8C7FA"/>
<path d="M330 169.5C330 159.835 322.165 152 312.5 152H291V187H312.5C322.165 187 330 179.165 330 169.5Z" fill="#1F1F1F"/>
<path d="M313.5 182C306.596 182 301 176.404 301 169.5C301 162.596 306.596 157 313.5 157C320.404 157 326 162.596 326 169.5C326 176.404 320.404 182 313.5 182Z" fill="white"/>
<mask id="mask0_2015_3156" style="mask-type:alpha" maskUnits="userSpaceOnUse" x="165" y="129" width="127" height="84">
<rect x="165" y="129" width="127" height="84" rx="12.4132" fill="white"/>
</mask>
<g mask="url(#mask0_2015_3156)">
<path d="M153.827 154.785C146.856 157.043 138.901 155.486 133.341 150.081C125.405 142.369 125.353 129.741 133.223 121.876C141.093 114.011 153.906 113.888 161.841 121.6C167.401 127.005 169.091 134.822 166.897 141.723C173.869 139.466 181.824 141.022 187.384 146.427C195.319 154.139 195.372 166.767 187.501 174.632C179.631 182.497 166.819 182.62 158.883 174.908C153.323 169.504 151.633 161.686 153.827 154.785Z" fill="#E1E3E1"/>
</g>
<g filter="url(#filter0_b_2015_3156)">
<rect x="166" y="130" width="125" height="82" rx="11" fill="white" fill-opacity="0.01"/>
</g>
<rect x="165.5" y="129.5" width="126" height="83" rx="11.9132" stroke="#1F1F1F"/>
<path d="M177 198H280" stroke="#1F1F1F" stroke-linecap="round"/>
<path d="M177 198H206" stroke="#DC362E" stroke-linecap="round"/>
<g filter="url(#filter1_b_2015_3156)">
<circle cx="206" cy="198" r="6" fill="white"/>
<circle cx="206" cy="198" r="5.5" stroke="#1F1F1F"/>
</g>
<path d="M303.821 143.486L323.459 127.538" stroke="#1F1F1F" stroke-linecap="round"/>
<path d="M146.997 182.519L105.519 142.003" stroke="#1F1F1F" stroke-linecap="round"/>
<path d="M221.231 113.916C224.003 111.64 227.997 111.64 230.769 113.916L232.702 115.504C234.165 116.705 236.026 117.31 237.916 117.198L240.413 117.05C243.993 116.837 247.224 119.185 248.129 122.656L248.76 125.076C249.237 126.908 250.388 128.491 251.982 129.511L254.089 130.859C257.11 132.792 258.344 136.59 257.036 139.93L256.124 142.259C255.433 144.021 255.433 145.979 256.124 147.741L257.036 150.07C258.344 153.41 257.11 157.208 254.089 159.141L251.982 160.489C250.388 161.509 249.237 163.092 248.76 164.924L248.129 167.344C247.224 170.815 243.993 173.163 240.413 172.95L237.916 172.802C236.026 172.69 234.165 173.295 232.702 174.496L230.769 176.084C227.997 178.36 224.003 178.36 221.231 176.084L219.298 174.496C217.835 173.295 215.974 172.69 214.084 172.802L211.587 172.95C208.007 173.163 204.776 170.815 203.871 167.344L203.24 164.924C202.763 163.092 201.612 161.509 200.018 160.489L197.911 159.141C194.89 157.208 193.656 153.41 194.964 150.07L195.876 147.741C196.567 145.979 196.567 144.021 195.876 142.259L194.964 139.93C193.656 136.59 194.89 132.792 197.911 130.859L200.018 129.511C201.612 128.491 202.763 126.908 203.24 125.076L203.871 122.656C204.776 119.185 208.007 116.837 211.587 117.05L214.084 117.198C215.974 117.31 217.835 116.705 219.298 115.504L221.231 113.916Z" fill="#1AA64A"/>
<path d="M225.34 140.177C219.653 141.18 215.703 145.988 216.563 150.863L218.126 159.727L238.807 156.08L237.244 147.217C236.384 142.342 231.028 139.174 225.34 140.177Z" fill="white"/>
<path d="M223.327 136.878C226.318 136.35 228.315 133.498 227.788 130.506C227.26 127.515 224.408 125.517 221.416 126.045C218.425 126.572 216.428 129.425 216.955 132.416C217.483 135.408 220.335 137.405 223.327 136.878Z" fill="white"/>
<path d="M226.397 108.404C227.002 84.8945 245.874 71.8002 259.26 78.4943C272.646 85.1884 258.679 110.4 250.769 102.879C242.858 95.3575 265.012 73.4744 282.339 90.9952" stroke="#1F1F1F" stroke-linecap="round"/>
<circle cx="290" cy="98" r="6" fill="#1F1F1F"/>
<path d="M121.072 93.9749C121.165 97.1798 123.724 100.773 124.157 100.761C124.59 100.748 126.936 97.0124 126.843 93.8075C126.796 92.2051 125.467 90.9488 123.873 91.0016C122.273 91.048 121.019 92.3793 121.072 93.9749Z" fill="#1F1F1F"/>
<path d="M126.931 108.025C126.836 104.819 124.274 101.223 123.841 101.235C123.408 101.248 121.062 104.984 121.157 108.19C121.204 109.793 122.535 111.051 124.129 110.998C125.723 110.946 126.978 109.615 126.931 108.025Z" fill="#1F1F1F"/>
<path d="M116.971 103.929C120.171 103.836 123.759 101.274 123.747 100.84C123.734 100.407 120.003 98.0569 116.803 98.1497C115.203 98.1962 113.949 99.5274 114.002 101.123C114.041 102.719 115.371 103.975 116.971 103.929Z" fill="#1F1F1F"/>
<path d="M131.029 98.0646C127.828 98.1581 124.239 100.722 124.251 101.155C124.264 101.589 127.995 103.939 131.196 103.845C132.796 103.798 134.051 102.466 133.998 100.87C133.946 99.2744 132.629 98.0178 131.029 98.0646Z" fill="#1F1F1F"/>
<defs>
<filter id="filter0_b_2015_3156" x="162" y="126" width="133" height="90" filterUnits="userSpaceOnUse" color-interpolation-filters="sRGB">
<feFlood flood-opacity="0" result="BackgroundImageFix"/>
<feGaussianBlur in="BackgroundImageFix" stdDeviation="2"/>
<feComposite in2="SourceAlpha" operator="in" result="effect1_backgroundBlur_2015_3156"/>
<feBlend mode="normal" in="SourceGraphic" in2="effect1_backgroundBlur_2015_3156" result="shape"/>
</filter>
<filter id="filter1_b_2015_3156" x="186.39" y="178.39" width="39.2197" height="39.2197" filterUnits="userSpaceOnUse" color-interpolation-filters="sRGB">
<feFlood flood-opacity="0" result="BackgroundImageFix"/>
<feGaussianBlur in="BackgroundImageFix" stdDeviation="6.80493"/>
<feComposite in2="SourceAlpha" operator="in" result="effect1_backgroundBlur_2015_3156"/>
<feBlend mode="normal" in="SourceGraphic" in2="effect1_backgroundBlur_2015_3156" result="shape"/>
</filter>
</defs>
</svg>
