<svg width="456" height="300" viewBox="0 0 456 300" fill="none" xmlns="http://www.w3.org/2000/svg">
<rect width="456" height="300" rx="48" fill="white"/>
<path d="M99.5 165.5C99.5 152.797 109.797 142.5 122.5 142.5H178.5V188.5H122.5C109.797 188.5 99.5 178.203 99.5 165.5Z" fill="white" stroke="#1F1F1F"/>
<path d="M347 97.8467C347 93.8544 344.491 90.2875 340.723 88.9245L303.736 75.5655C301.643 74.8115 299.347 74.8115 297.255 75.5655L260.277 88.9245C256.509 90.2875 254 93.8544 254 97.8467V123.231C254.087 127.581 254.426 131.786 255.008 136.097C257.759 154.56 268.212 175.468 296.857 190.123C299.144 191.292 301.866 191.292 304.143 190.123C332.788 175.478 343.241 154.56 345.993 136.097C346.574 131.786 346.913 127.59 347 123.24V97.8467Z" fill="#A8C7FA"/>
<g filter="url(#filter0_b_2015_3292)">
<path d="M313 146.13C313 137.774 306.226 131 297.87 131H193.13C184.774 131 178 137.774 178 146.13V223H313V146.13Z" fill="white" fill-opacity="0.01"/>
<path d="M312.5 146.13C312.5 138.05 305.95 131.5 297.87 131.5H193.13C185.05 131.5 178.5 138.05 178.5 146.13V222.5H312.5V146.13Z" stroke="#1F1F1F"/>
</g>
<circle cx="1.5" cy="1.5" r="1.5" transform="matrix(-1 0 0 1 246 138)" fill="#1F1F1F"/>
<path d="M285.5 222C285.5 220.067 283.933 218.5 282 218.5H160C158.067 218.5 156.5 220.067 156.5 222C156.5 223.933 158.067 225.5 160 225.5H282C283.933 225.5 285.5 223.933 285.5 222Z" fill="white" stroke="#1F1F1F"/>
<path d="M312.5 222C312.5 220.067 310.933 218.5 309 218.5H279C277.067 218.5 275.5 220.067 275.5 222C275.5 223.933 277.067 225.5 279 225.5H309C310.933 225.5 312.5 223.933 312.5 222Z" fill="white" stroke="#1F1F1F"/>
<rect x="304.5" y="150.5" width="39" height="75" rx="6.51538" fill="white" stroke="#1F1F1F"/>
<path d="M344 162H344.198C344.641 162 345 162.359 345 162.802V168.198C345 168.641 344.641 169 344.198 169H344V162Z" fill="#1F1F1F"/>
<path d="M344 171H344.198C344.641 171 345 171.359 345 171.802V174.198C345 174.641 344.641 175 344.198 175H344V171Z" fill="#1F1F1F"/>
<path d="M179 142H235.5C248.479 142 259 152.521 259 165.5C259 178.479 248.479 189 235.5 189H179V142Z" fill="#1B6EF3"/>
<path d="M122.713 155.917C124.177 153.361 127.823 153.361 129.287 155.917L137.482 170.225C138.95 172.789 137.123 176 134.195 176H117.805C114.877 176 113.05 172.789 114.518 170.225L122.713 155.917Z" fill="#1F1F1F"/>
<ellipse cx="158.5" cy="166" rx="11.5" ry="12" fill="#1F1F1F"/>
<path d="M226.081 154.486C227.583 153.53 229.516 154.028 230.4 155.598L232.235 158.859L234 155.724C234.884 154.154 236.863 153.575 238.421 154.432C239.978 155.288 240.525 157.254 239.641 158.824L237.976 161.781H240.8C242.567 161.781 244 163.251 244 165.064C244 166.876 242.567 168.346 240.8 168.346H237.576L239.6 171.942C240.484 173.512 239.983 175.559 238.481 176.514C236.979 177.47 235.045 176.972 234.161 175.402L232.235 171.98L230.441 175.168C229.557 176.738 227.578 177.316 226.021 176.46C224.463 175.604 223.916 173.637 224.8 172.068L226.895 168.346H223.2C221.433 168.346 220 166.876 220 165.064C220 163.251 221.433 161.781 223.2 161.781H226.494L224.961 159.058C224.078 157.488 224.579 155.441 226.081 154.486Z" fill="white"/>
<path d="M192.081 154.486C193.583 153.53 195.516 154.028 196.4 155.598L198.235 158.859L200 155.724C200.884 154.154 202.863 153.575 204.421 154.432C205.978 155.288 206.525 157.254 205.641 158.824L203.976 161.781H206.8C208.567 161.781 210 163.251 210 165.064C210 166.876 208.567 168.346 206.8 168.346H203.576L205.6 171.942C206.484 173.512 205.983 175.559 204.481 176.514C202.979 177.47 201.045 176.972 200.161 175.402L198.235 171.98L196.441 175.168C195.557 176.738 193.578 177.316 192.021 176.46C190.463 175.604 189.916 173.637 190.8 172.068L192.895 168.346H189.2C187.433 168.346 186 166.876 186 165.064C186 163.251 187.433 161.781 189.2 161.781H192.494L190.961 159.058C190.078 157.488 190.579 155.441 192.081 154.486Z" fill="white"/>
<path d="M208 117H239.343C242.907 117 244.691 112.691 242.172 110.172L233 101" stroke="#1F1F1F" stroke-linecap="round" stroke-linejoin="round"/>
<path d="M92 166C92 182.569 105.431 196 122 196" stroke="#1F1F1F" stroke-linecap="round"/>
<circle cx="228" cy="96" r="4" fill="#1F1F1F"/>
<path d="M248 103.5V125.5" stroke="#1F1F1F" stroke-linecap="round"/>
<g clip-path="url(#clip0_2015_3292)">
<path d="M318 195C317.45 195 316.975 194.808 316.575 194.425C316.192 194.025 316 193.55 316 193V183C316 182.45 316.192 181.983 316.575 181.6C316.975 181.2 317.45 181 318 181H319V179C319 177.617 319.483 176.442 320.45 175.475C321.433 174.492 322.617 174 324 174C325.383 174 326.558 174.492 327.525 175.475C328.508 176.442 329 177.617 329 179V181H330C330.55 181 331.017 181.2 331.4 181.6C331.8 181.983 332 182.45 332 183V193C332 193.55 331.8 194.025 331.4 194.425C331.017 194.808 330.55 195 330 195H318ZM318 193H330V183H318V193ZM324 190C324.55 190 325.017 189.808 325.4 189.425C325.8 189.025 326 188.55 326 188C326 187.45 325.8 186.983 325.4 186.6C325.017 186.2 324.55 186 324 186C323.45 186 322.975 186.2 322.575 186.6C322.192 186.983 322 187.45 322 188C322 188.55 322.192 189.025 322.575 189.425C322.975 189.808 323.45 190 324 190ZM321 181H327V179C327 178.167 326.708 177.458 326.125 176.875C325.542 176.292 324.833 176 324 176C323.167 176 322.458 176.292 321.875 176.875C321.292 177.458 321 178.167 321 179V181ZM318 193V183V193Z" fill="#1F1F1F"/>
</g>
<defs>
<filter id="filter0_b_2015_3292" x="173.937" y="126.937" width="143.126" height="100.126" filterUnits="userSpaceOnUse" color-interpolation-filters="sRGB">
<feFlood flood-opacity="0" result="BackgroundImageFix"/>
<feGaussianBlur in="BackgroundImageFix" stdDeviation="2.03139"/>
<feComposite in2="SourceAlpha" operator="in" result="effect1_backgroundBlur_2015_3292"/>
<feBlend mode="normal" in="SourceGraphic" in2="effect1_backgroundBlur_2015_3292" result="shape"/>
</filter>
<clipPath id="clip0_2015_3292">
<rect width="24" height="24" fill="white" transform="translate(312 173)"/>
</clipPath>
</defs>
</svg>
