<svg width="456" height="300" viewBox="0 0 456 300" fill="none" xmlns="http://www.w3.org/2000/svg">
<rect width="456" height="300" rx="48" fill="white"/>
<path d="M269.184 110.297C271.661 107.234 276.339 107.234 278.816 110.297C279.972 111.725 281.719 112.581 283.538 112.608C287.438 112.668 290.354 116.385 289.543 120.264C289.165 122.073 289.597 123.995 290.71 125.458C293.095 128.595 292.054 133.23 288.566 135.004C286.939 135.831 285.73 137.373 285.298 139.169C284.373 143.021 280.16 145.084 276.621 143.418C274.97 142.64 273.03 142.64 271.379 143.418C267.84 145.084 263.627 143.021 262.702 139.169C262.27 137.373 261.061 135.831 259.434 135.004C255.946 133.23 254.905 128.595 257.29 125.458C258.403 123.995 258.835 122.073 258.457 120.264C257.646 116.385 260.562 112.668 264.462 112.608C266.281 112.581 268.028 111.725 269.184 110.297Z" fill="#1B6EF3"/>
<rect width="38" height="25" transform="matrix(0.681998 -0.731354 0.732562 0.680701 261 149)" fill="#EF9800"/>
<rect x="0.181876" y="0.682354" width="43" height="26" rx="5.5" transform="matrix(0.866025 0.5 -0.502273 0.864709 250.367 115.001)" fill="white" stroke="#1F1F1F"/>
<path d="M284.177 135L253.5 118L259.164 139.835C259.418 140.813 260.422 141.395 261.4 141.132L284.177 135Z" fill="#1F1F1F"/>
<path d="M260.627 137.391L253.815 118.318L282.579 134.5L262.705 138.559C261.817 138.74 260.931 138.242 260.627 137.391Z" fill="white"/>
<path d="M242.5 147.759C242.5 145.959 243.959 144.5 245.759 144.5H297.241C299.041 144.5 300.5 145.959 300.5 147.759V215.724C300.5 221.675 295.675 226.5 289.724 226.5H253.276C247.325 226.5 242.5 221.675 242.5 215.724V147.759Z" fill="white" stroke="#1F1F1F"/>
<mask id="mask0_2015_3552" style="mask-type:alpha" maskUnits="userSpaceOnUse" x="243" y="145" width="57" height="82">
<path d="M243 148.759C243 146.683 244.683 145 246.759 145H296.241C298.317 145 300 146.683 300 148.759V215.724C300 221.952 294.952 227 288.724 227H254.276C248.048 227 243 221.952 243 215.724V148.759Z" fill="white"/>
</mask>
<g mask="url(#mask0_2015_3552)">
<path d="M306.48 163L271.221 188.283C269.624 189.428 270.634 191.946 272.58 191.671L305.672 186.987C307.707 186.699 308.661 189.418 306.892 190.465L282.333 205" stroke="#E1E3E1" stroke-width="8" stroke-linecap="round"/>
<rect x="260.25" y="160.25" width="0.5" height="65.5" fill="white" stroke="#1F1F1F" stroke-width="0.5"/>
<rect x="283.25" y="160.25" width="0.5" height="65.5" fill="white" stroke="#1F1F1F" stroke-width="0.5"/>
</g>
<path d="M322.17 187.346C321.332 185.149 318.87 184.047 316.673 184.886L314.466 185.728C313.239 186.197 312.623 187.572 313.092 188.8L321.023 209.579C321.492 210.806 322.867 211.422 324.095 210.953L326.301 210.111C328.499 209.272 329.6 206.811 328.761 204.613L322.17 187.346Z" fill="white" stroke="#1F1F1F"/>
<rect x="308.763" y="171.85" width="55" height="9" rx="1.43966" transform="rotate(69.1078 308.763 171.85)" fill="white" stroke="#1F1F1F"/>
<rect x="221" y="226" width="100" height="1" rx="0.5" fill="#1F1F1F"/>
<rect x="102" y="226" width="100" height="1" rx="0.5" fill="#1F1F1F"/>
<path d="M142.862 139.451C132.487 119.941 145.214 105.936 160.416 108.587C175.617 111.239 169.121 135.599 159.535 130.693C149.949 125.786 165.764 102.612 186.441 110.279" stroke="#1F1F1F" stroke-linecap="round"/>
<path d="M231 207.5V168.5" stroke="#1F1F1F"/>
<rect x="227" y="210" width="8" height="8" rx="4" fill="#1F1F1F"/>
<g filter="url(#filter0_b_2015_3552)">
<path d="M166.106 162.538C168.153 160.152 171.847 160.152 173.894 162.538C174.958 163.779 176.55 164.438 178.179 164.313C181.315 164.074 183.926 166.685 183.687 169.821C183.562 171.45 184.221 173.042 185.462 174.106C187.848 176.153 187.848 179.847 185.462 181.894C184.221 182.958 183.562 184.55 183.687 186.179C183.926 189.315 181.315 191.926 178.179 191.687C176.55 191.562 174.958 192.221 173.894 193.462C171.847 195.848 168.153 195.848 166.106 193.462C165.042 192.221 163.45 191.562 161.821 191.687C158.685 191.926 156.074 189.315 156.313 186.179C156.438 184.55 155.779 182.958 154.538 181.894C152.152 179.847 152.152 176.153 154.538 174.106C155.779 173.042 156.438 171.45 156.313 169.821C156.074 166.685 158.685 164.074 161.821 164.313C163.45 164.438 165.042 163.779 166.106 162.538Z" fill="#80DA88"/>
</g>
<path d="M155.195 165.427C160.268 168.031 160.268 174.969 155.195 177.573L130.665 190.166C125.845 192.64 120 189.312 120 184.093L120 158.907C120 153.688 125.845 150.36 130.665 152.834L155.195 165.427Z" fill="#E46962"/>
<g filter="url(#filter1_b_2015_3552)">
<path fill-rule="evenodd" clip-rule="evenodd" d="M114 171C111.791 171 110 172.791 110 175V183V215V221C110 224.314 112.686 227 116 227H187C190.314 227 193 224.314 193 221V183C193 179.686 190.314 177 187 177H137V175C137 172.791 135.209 171 133 171H114Z" fill="white"/>
</g>
<g filter="url(#filter2_b_2015_3552)">
<mask id="path-22-inside-1_2015_3552" fill="white">
<path fill-rule="evenodd" clip-rule="evenodd" d="M114 171C111.791 171 110 172.791 110 175V183V215V221C110 224.314 112.686 227 116 227H187C190.314 227 193 224.314 193 221V183C193 179.686 190.314 177 187 177H137V175C137 172.791 135.209 171 133 171H114Z"/>
</mask>
<path d="M137 177H136V178H137V177ZM111 175C111 173.343 112.343 172 114 172V170C111.239 170 109 172.239 109 175H111ZM111 183V175H109V183H111ZM111 215V183H109V215H111ZM111 221V215H109V221H111ZM116 226C113.239 226 111 223.761 111 221H109C109 224.866 112.134 228 116 228V226ZM187 226H116V228H187V226ZM192 221C192 223.761 189.761 226 187 226V228C190.866 228 194 224.866 194 221H192ZM192 183V221H194V183H192ZM187 178C189.761 178 192 180.239 192 183H194C194 179.134 190.866 176 187 176V178ZM137 178H187V176H137V178ZM136 175V177H138V175H136ZM133 172C134.657 172 136 173.343 136 175H138C138 172.239 135.761 170 133 170V172ZM114 172H133V170H114V172Z" fill="#1F1F1F" mask="url(#path-22-inside-1_2015_3552)"/>
</g>
<path d="M150.461 187.085C151.937 185.873 154.063 185.873 155.539 187.085L156.406 187.797C157.184 188.436 158.175 188.758 159.181 188.698L160.301 188.632C162.207 188.519 163.927 189.769 164.409 191.616L164.692 192.702C164.946 193.677 165.558 194.52 166.407 195.063L167.352 195.668C168.96 196.696 169.617 198.718 168.921 200.496L168.512 201.541C168.144 202.479 168.144 203.521 168.512 204.459L168.921 205.504C169.617 207.282 168.96 209.304 167.352 210.332L166.407 210.937C165.558 211.48 164.946 212.323 164.692 213.298L164.409 214.384C163.927 216.231 162.207 217.481 160.301 217.368L159.181 217.302C158.175 217.242 157.184 217.564 156.406 218.203L155.539 218.915C154.063 220.127 151.937 220.127 150.461 218.915L149.594 218.203C148.816 217.564 147.825 217.242 146.819 217.302L145.699 217.368C143.793 217.481 142.073 216.231 141.591 214.384L141.308 213.298C141.054 212.323 140.442 211.48 139.593 210.937L138.648 210.332C137.04 209.304 136.383 207.282 137.079 205.504L137.488 204.459C137.856 203.521 137.856 202.479 137.488 201.541L137.079 200.496C136.383 198.718 137.04 196.696 138.648 195.668L139.593 195.063C140.442 194.52 141.054 193.677 141.308 192.702L141.591 191.616C142.073 189.769 143.793 188.519 145.699 188.632L146.819 188.698C147.825 188.758 148.816 188.436 149.594 187.797L150.461 187.085Z" fill="#E1E3E1"/>
<path d="M153 202C150.25 202 148 203.8 148 206L148 210L158 210L158 206C158 203.8 155.75 202 153 202Z" fill="#1F1F1F"/>
<path d="M153 201C154.657 201 156 199.657 156 198C156 196.343 154.657 195 153 195C151.343 195 150 196.343 150 198C150 199.657 151.343 201 153 201Z" fill="#1F1F1F"/>
<path d="M120.4 185.8L121.356 184.844L123.325 186.813L123.325 178.6L124.675 178.6L124.675 186.813L126.644 184.844L127.6 185.8L124 189.4L120.4 185.8Z" fill="#1F1F1F"/>
<rect x="117" y="194" width="14" height="1" fill="#1F1F1F"/>
<path d="M198.072 98.9749C198.165 102.18 200.724 105.773 201.157 105.761C201.59 105.748 203.936 102.012 203.843 98.8075C203.796 97.2051 202.467 95.9488 200.873 96.0016C199.273 96.048 198.019 97.3793 198.072 98.9749Z" fill="#1F1F1F"/>
<path d="M203.931 113.025C203.836 109.819 201.274 106.223 200.841 106.235C200.408 106.248 198.062 109.984 198.157 113.19C198.204 114.793 199.535 116.051 201.129 115.998C202.723 115.946 203.978 114.615 203.931 113.025Z" fill="#1F1F1F"/>
<path d="M193.971 108.929C197.171 108.836 200.759 106.274 200.747 105.84C200.734 105.407 197.003 103.057 193.803 103.15C192.203 103.196 190.949 104.527 191.002 106.123C191.041 107.719 192.371 108.975 193.971 108.929Z" fill="#1F1F1F"/>
<path d="M208.029 103.065C204.828 103.158 201.239 105.722 201.251 106.155C201.264 106.589 204.995 108.939 208.196 108.845C209.796 108.798 211.051 107.466 210.998 105.87C210.946 104.274 209.629 103.018 208.029 103.065Z" fill="#1F1F1F"/>
<defs>
<filter id="filter0_b_2015_3552" x="148.749" y="156.749" width="42.5029" height="42.502" filterUnits="userSpaceOnUse" color-interpolation-filters="sRGB">
<feFlood flood-opacity="0" result="BackgroundImageFix"/>
<feGaussianBlur in="BackgroundImageFix" stdDeviation="2"/>
<feComposite in2="SourceAlpha" operator="in" result="effect1_backgroundBlur_2015_3552"/>
<feBlend mode="normal" in="SourceGraphic" in2="effect1_backgroundBlur_2015_3552" result="shape"/>
</filter>
<filter id="filter1_b_2015_3552" x="106" y="167" width="91" height="64" filterUnits="userSpaceOnUse" color-interpolation-filters="sRGB">
<feFlood flood-opacity="0" result="BackgroundImageFix"/>
<feGaussianBlur in="BackgroundImageFix" stdDeviation="2"/>
<feComposite in2="SourceAlpha" operator="in" result="effect1_backgroundBlur_2015_3552"/>
<feBlend mode="normal" in="SourceGraphic" in2="effect1_backgroundBlur_2015_3552" result="shape"/>
</filter>
<filter id="filter2_b_2015_3552" x="106" y="167" width="91" height="64" filterUnits="userSpaceOnUse" color-interpolation-filters="sRGB">
<feFlood flood-opacity="0" result="BackgroundImageFix"/>
<feGaussianBlur in="BackgroundImageFix" stdDeviation="2"/>
<feComposite in2="SourceAlpha" operator="in" result="effect1_backgroundBlur_2015_3552"/>
<feBlend mode="normal" in="SourceGraphic" in2="effect1_backgroundBlur_2015_3552" result="shape"/>
</filter>
</defs>
</svg>
